<svg xmlns="http://www.w3.org/2000/svg" viewBox="0 0 1600 900" role="img" aria-labelledby="title desc">
  <title id="title">Image coming soon</title>
  <desc id="desc">Placeholder graphic indicating that a neighborhood image will be added soon.</desc>
  <defs>
    <linearGradient id="bg" x1="0%" y1="0%" x2="100%" y2="100%">
      <stop offset="0%" stop-color="#f4f7fb"/>
      <stop offset="100%" stop-color="#e6edf6"/>
    </linearGradient>
    <linearGradient id="panel" x1="0%" y1="0%" x2="100%" y2="100%">
      <stop offset="0%" stop-color="#ffffff"/>
      <stop offset="100%" stop-color="#f6f9fc"/>
    </linearGradient>
  </defs>
  <rect width="1600" height="900" fill="url(#bg)"/>
  <g fill="none" stroke="#d7e1ed" stroke-width="2" opacity="0.85">
    <path d="M0 140h1600"/>
    <path d="M0 340h1600"/>
    <path d="M0 540h1600"/>
    <path d="M0 740h1600"/>
    <path d="M220 0v900"/>
    <path d="M520 0v900"/>
    <path d="M820 0v900"/>
    <path d="M1120 0v900"/>
    <path d="M1420 0v900"/>
  </g>
  <rect x="170" y="150" width="1260" height="600" rx="36" fill="url(#panel)" stroke="#cfd9e6" stroke-width="4"/>
  <g transform="translate(800 390)">
    <rect x="-110" y="-90" width="220" height="180" rx="26" fill="#eef4fb" stroke="#c3d2e4" stroke-width="4"/>
    <circle cx="-30" cy="-25" r="22" fill="#c46a2d" opacity="0.22"/>
    <path d="M-70 52l54-56 44 42 66-70 76 84" fill="none" stroke="#1f3a5f" stroke-linecap="round" stroke-linejoin="round" stroke-width="16"/>
  </g>
  <text x="800" y="560" text-anchor="middle" fill="#1f2933" font-family="'DM Sans', Arial, sans-serif" font-size="62" font-weight="700">Image coming soon</text>
  <text x="800" y="616" text-anchor="middle" fill="#5f7085" font-family="'DM Sans', Arial, sans-serif" font-size="28">A neighborhood photo will be added after final review.</text>
</svg>
