<svg role="img" aria-labelledby="map-title map-desc" xmlns="http://www.w3.org/2000/svg" xmlns:xlink="http://www.w3.org/1999/xlink" xmlns:inkscape="http://www.inkscape.org/namespaces/inkscape" version="1.1" width="595.276" height="841.89" viewBox="0 0 595.276 841.89">
<defs>
<clipPath id="clip_1">
<path transform="matrix(1,0,0,-1,0,841.89)" d="M0 841.89H595.276V0H0Z"/>
</clipPath>
<clipPath id="clip_2">
<path transform="matrix(1,0,0,-1,0,841.89)" d="M0 841.89H595.276V0H0Z"/>
</clipPath>
<clipPath id="clip_3">
<path transform="matrix(1,0,0,-1,0,841.89)" d="M0 841.89H595.276V0H0Z"/>
</clipPath>
<clipPath id="clip_4">
<path transform="matrix(1,0,0,-1,0,841.89)" d="M0 841.89H595.276V0H0Z"/>
</clipPath>
<clipPath id="clip_5">
<path transform="matrix(1,0,0,-1,0,841.89)" d="M0 841.89H595.276V0H0Z"/>
</clipPath>
<clipPath id="clip_6">
<path transform="matrix(1,0,0,-1,0,841.89)" d="M0 841.89H595.276V0H0Z"/>
</clipPath>
<clipPath id="clip_7">
<path transform="matrix(1,0,0,-1,0,841.89)" d="M0 841.89H595.276V0H0Z"/>
</clipPath>
<clipPath id="clip_8">
<path transform="matrix(1,0,0,-1,0,841.89)" d="M0 841.89H595.276V0H0Z"/>
</clipPath>
<clipPath id="clip_9">
<path transform="matrix(1,0,0,-1,0,841.89)" d="M0 841.89H595.276V0H0Z"/>
</clipPath>
<clipPath id="clip_10">
<path transform="matrix(1,0,0,-1,0,841.89)" d="M0 841.89H595.276V0H0Z"/>
</clipPath>
<clipPath id="clip_11">
<path transform="matrix(1,0,0,-1,0,841.89)" d="M0 841.89H595.276V0H0Z"/>
</clipPath>
<clipPath id="clip_12">
<path transform="matrix(1,0,0,-1,0,841.89)" d="M0 841.89H595.276V0H0Z"/>
</clipPath>
<clipPath id="clip_13">
<path transform="matrix(1,0,0,-1,0,841.89)" d="M0 841.89H595.276V0H0Z"/>
</clipPath>
<clipPath id="clip_14">
<path transform="matrix(1,0,0,-1,0,841.89)" d="M0 841.89H595.276V0H0Z"/>
</clipPath>
<clipPath id="clip_15">
<path transform="matrix(1,0,0,-1,0,841.89)" d="M0 841.89H595.276V0H0Z"/>
</clipPath>
<clipPath id="clip_16">
<path transform="matrix(1,0,0,-1,0,841.89)" d="M0 841.89H595.276V0H0Z"/>
</clipPath>
<clipPath id="clip_17">
<path transform="matrix(1,0,0,-1,0,841.89)" d="M0 841.89H595.276V0H0Z"/>
</clipPath>
<clipPath id="clip_18">
<path transform="matrix(1,0,0,-1,0,841.89)" d="M0 841.89H595.276V0H0Z"/>
</clipPath>
<clipPath id="clip_19">
<path transform="matrix(1,0,0,-1,0,841.89)" d="M0 841.89H595.276V0H0Z"/>
</clipPath>
<clipPath id="clip_20">
<path transform="matrix(1,0,0,-1,0,841.89)" d="M0 841.89H595.276V0H0Z"/>
</clipPath>
<clipPath id="clip_21">
<path transform="matrix(1,0,0,-1,0,841.89)" d="M0 841.89H595.276V0H0Z"/>
</clipPath>
<clipPath id="clip_22">
<path transform="matrix(1,0,0,-1,0,841.89)" d="M0 841.89H595.276V0H0Z"/>
</clipPath>
<clipPath id="clip_23">
<path transform="matrix(1,0,0,-1,0,841.89)" d="M0 841.89H595.276V0H0Z"/>
</clipPath>
</defs>
<title id="map-title">Neighborhoods of the City of White Plains</title>
<desc id="map-desc">Pastel-colored neighborhood map of White Plains, New York. Adjacent neighborhood regions use different colors.</desc>
<rect width="595.276" height="841.890" fill="#ffffff"/>
<g id="neighborhood-color-fills">
  <path id="neighborhood-north-street" class="neighborhood-region" data-neighborhood="North Street" data-source-drawing="42" d="M 393.085 648.449 L 382.102 633.089 L 377.759 637.248 L 366.382 626.841 L 354.789 635.361 L 351.182 628.251 L 354.479 627.190 L 356.724 623.620 L 345.932 616.835 L 344.930 615.014 L 328.599 622.650 L 322.091 609.639 L 316.730 600.758 L 320.255 591.474 L 317.547 586.609 L 312.471 571.097 L 327.007 554.008 L 324.322 551.117 L 320.477 535.908 L 321.759 534.541 L 317.010 500.818 C 316.458 496.189 314.129 491.956 310.513 489.015 C 309.523 488.639 308.659 487.990 308.023 487.143 C 307.432 486.295 307.055 485.316 306.924 484.289 L 303.423 471.340 L 302.740 466.982 L 304.193 464.162 L 304.193 461.770 L 298.362 462.833 L 292.785 447.820 L 301.277 445.590 L 285.514 409.835 C 284.293 407.514 283.823 404.871 284.173 402.271 C 293.987 406.992 302.932 413.337 310.632 421.039 C 320.263 430.529 328.749 441.117 335.910 452.585 L 357.914 448.170 C 367.279 447.202 376.729 448.813 385.243 452.829 C 387.495 453.891 389.861 454.692 392.294 455.216 C 394.740 455.743 397.259 455.830 399.734 455.473 L 405.240 464.757 L 393.044 478.025 L 357.908 493.400 L 373.090 538.206 L 390.839 530.153 L 402.285 550.490 L 412.341 568.487 L 426.111 561.021 L 459.034 615.301 L 455.253 619.054 L 455.191 621.624 L 453.478 623.766 L 450.724 625.663 L 446.992 629.396 L 443.259 633.985 L 441.729 636.127 L 440.444 637.657 L 436.650 641.329 L 435.732 642.797 L 434.549 644.607 L 421.533 625.062 L 421.189 622.767 L 420.423 622.423 L 419.276 622.767 L 393.085 648.449 C 393.647 648.034 394.143 647.537 394.556 646.975 Z" fill="#F7C8A6" stroke="none"/>
  <path id="neighborhood-rosedale" class="neighborhood-region" data-neighborhood="Rosedale" data-source-drawing="41" d="M 314.402 794.804 L 311.854 792.629 L 311.916 790.578 L 313.346 789.087 L 311.668 786.415 L 311.668 784.923 C 314.584 784.243 316.598 781.576 316.453 778.585 L 316.142 772.930 L 311.601 753.635 C 311.278 750.703 310.177 747.911 308.412 745.548 L 309.702 744.410 C 308.880 742.655 308.196 740.839 307.654 738.978 L 306.943 730.229 C 306.123 722.397 305.324 714.563 304.548 706.727 C 304.124 702.442 304.223 698.121 304.842 693.860 C 305.460 689.614 306.012 685.360 306.499 681.097 C 306.637 679.884 306.591 678.656 306.362 677.456 C 306.134 676.264 305.710 675.118 305.107 674.065 L 300.464 663.208 L 330.879 657.687 C 336.941 652.547 343.370 647.855 350.113 643.648 L 363.712 674.517 C 368.203 668.808 373.643 663.914 379.794 660.051 C 384.523 656.540 388.967 652.661 393.084 648.449 L 406.784 634.737 L 412.926 628.619 L 417.287 624.527 L 419.276 622.767 L 420.423 622.423 L 421.188 622.767 L 421.532 625.062 L 422.366 626.421 L 434.550 644.607 L 429.654 649.319 L 430.021 658.193 C 424.019 667.079 419.051 676.622 415.215 686.636 C 414.728 687.908 414.347 689.218 414.076 690.552 C 413.753 692.144 412.527 693.398 410.943 693.757 L 410.658 695.893 L 407.382 704.438 L 407.240 708.212 L 400.576 715.588 C 400.383 715.807 400.164 716.000 399.922 716.163 C 398.370 717.207 396.265 716.795 395.221 715.243 L 392.926 715.167 C 392.171 716.432 390.558 716.885 389.255 716.200 C 389.067 716.101 388.853 716.061 388.643 716.085 C 388.076 716.149 387.529 716.332 387.036 716.620 L 384.359 718.035 L 380.687 718.571 C 378.724 719.317 377.215 720.925 376.595 722.931 L 374.070 728.553 L 373.838 729.620 L 373.914 732.450 L 374.679 734.936 C 375.203 739.087 375.229 743.286 374.756 747.443 L 373.226 749.776 L 373.188 754.327 L 372.270 755.590 L 367.604 755.628 L 365.156 757.961 L 365.117 760.715 C 360.968 761.885 357.844 765.309 357.058 769.548 L 355.711 770.956 L 353.692 771.384 C 351.536 772.796 349.852 774.821 348.857 777.197 C 348.362 778.380 347.680 779.475 346.838 780.441 C 345.814 781.614 344.442 782.429 342.921 782.766 L 338.515 786.744 L 337.646 787.140 L 330.162 787.161 L 324.639 790.473 L 323.125 790.768 L 319.749 791.052 L 319.002 791.350 L 317.373 793.591 L 316.507 794.279 L 314.402 794.804 Z" fill="#BFE3C0" stroke="none"/>
  <path id="neighborhood-white-plains-reservoir" class="neighborhood-region" data-neighborhood="White Plains Reservoir" data-source-drawing="6" d="M 171.759 184.421 L 176.060 209.004 L 197.692 208.622 L 199.372 197.649 L 202.443 197.675 C 206.955 202.918 210.328 209.042 212.347 215.658 L 208.718 221.168 L 210.465 224.662 L 230.759 232.861 L 240.288 216.432 L 241.834 208.570 L 250.771 193.920 L 253.047 193.880 C 257.158 189.425 260.346 184.200 262.425 178.505 L 271.624 162.033 L 272.887 162.105 L 274.728 154.129 L 277.609 150.146 L 277.845 145.579 C 271.937 147.541 265.523 147.326 259.759 144.975 L 261.124 141.773 C 262.267 136.127 262.005 130.286 260.362 124.765 L 265.963 113.437 L 263.208 111.488 L 263.208 105.978 L 264.821 99.728 L 264.888 98.116 L 261.058 98.317 C 260.173 95.314 260.320 92.101 261.476 89.192 L 266.019 79.052 C 263.361 77.496 261.024 75.447 259.134 73.016 L 258.445 69.255 L 256.870 65.941 L 251.521 65.990 L 249.952 66.994 L 248.984 71.326 L 246.704 71.388 L 230.440 66.980 L 230.554 68.867 L 229.849 69.933 L 222.323 68.143 L 224.297 57.727 L 226.607 48.782 L 215.729 45.254 L 204.921 65.103 L 197.059 88.757 L 184.248 88.103 L 184.374 90.791 L 186.390 94.613 L 175.470 97.637 L 174.828 103.936 L 187.519 125.808 L 191.281 138.793 L 194.168 141.912 L 194.342 144.453 L 193.129 149.650 L 189.714 157.815 L 196.786 169.577 L 191.846 178.871 L 194.643 181.646 L 194.655 185.334 L 196.053 187.883 L 171.759 184.421 Z" fill="#BFE3C0" stroke="none"/>
  <path id="neighborhood-highlands" class="neighborhood-region" data-neighborhood="Highlands" data-source-drawing="18" d="M 127.827 448.192 L 142.589 437.627 C 152.205 436.123 160.231 429.487 163.515 420.325 L 159.892 415.544 L 159.056 412.550 L 168.182 404.936 L 169.441 404.977 L 174.578 415.296 L 183.924 411.595 L 194.887 441.735 L 196.100 446.289 C 199.976 449.733 203.414 453.641 206.337 457.923 C 207.749 460.405 208.458 463.224 208.389 466.078 L 208.366 480.213 L 206.974 505.220 L 209.078 524.309 L 208.261 533.883 L 205.209 560.141 L 177.130 558.733 L 173.065 552.497 L 170.705 551.453 L 163.899 531.988 L 146.566 537.523 L 139.997 515.173 L 124.602 487.386 L 109.914 470.038 L 114.055 459.771 L 127.827 448.192 L 127.833 448.190 Z" fill="#F5E6A7" stroke="none"/>
  <path id="neighborhood-westchester-avenue" class="neighborhood-region" data-neighborhood="Westchester Avenue" data-source-drawing="24" d="M 357.915 448.170 C 367.279 447.202 376.729 448.813 385.244 452.829 C 389.711 455.111 394.750 456.031 399.735 455.473 L 415.398 481.897 C 416.157 481.734 416.932 481.653 417.708 481.656 C 423.695 481.676 428.533 486.545 428.513 492.533 L 424.191 496.702 L 421.896 493.374 L 408.319 500.871 L 421.665 540.002 L 402.286 550.490 L 412.342 568.487 L 426.111 561.021 L 459.034 615.301 C 461.351 614.250 463.064 612.200 463.685 609.733 L 463.991 602.083 C 465.702 597.595 468.514 593.610 472.169 590.493 C 473.296 588.523 473.745 586.238 473.446 583.988 C 472.344 581.890 472.662 579.329 474.242 577.563 C 475.781 576.338 476.718 574.509 476.812 572.545 C 477.449 567.861 477.715 563.134 477.608 558.409 L 476.445 553.880 L 476.384 550.698 L 475.570 546.432 C 475.660 544.586 474.237 543.016 472.391 542.925 C 472.206 542.916 472.021 542.922 471.837 542.944 L 462.718 542.944 C 461.842 539.867 459.799 537.254 457.024 535.661 L 454.943 532.295 L 449.313 524.829 L 443.500 517.363 L 441.060 512.738 L 440.940 510.611 L 439.014 506.738 L 438.894 505.041 L 442.951 501.617 C 438.304 495.930 434.654 489.497 432.154 482.592 L 414.980 445.365 C 412.436 439.275 408.708 433.751 404.014 429.112 C 390.742 417.999 376.650 407.904 361.858 398.914 C 351.173 392.391 339.683 387.292 327.677 383.747 C 318.254 382.534 308.766 381.892 299.265 381.824 C 292.398 381.940 285.547 381.150 278.887 379.475 L 277.130 384.180 L 275.777 389.018 C 274.929 394.901 278.492 400.525 284.173 402.271 C 293.987 406.992 302.933 413.337 310.632 421.039 L 322.453 388.853 L 353.002 400.389 L 357.915 448.170 Z" fill="#BFE3C0" stroke="none"/>
  <path id="neighborhood-woodcrest-heights" class="neighborhood-region" data-neighborhood="Woodcrest Heights" data-source-drawing="7" d="M 250.771 193.920 L 290.520 196.768 L 315.467 197.415 C 317.642 202.661 317.440 208.592 314.913 213.677 L 307.329 226.765 L 299.013 239.793 L 290.789 252.544 L 284.691 261.045 L 279.794 268.806 L 277.299 271.578 L 266.211 277.399 L 265.102 278.970 L 262.423 278.970 L 260.575 280.725 L 261.129 283.867 C 252.916 295.437 249.913 309.914 252.847 323.796 L 245.291 325.651 C 234.769 318.269 223.707 311.687 212.201 305.959 L 215.786 303.399 C 214.902 292.528 216.691 281.605 220.997 271.584 L 220.104 266.373 L 223.346 254.601 L 223.183 245.310 L 230.759 232.861 L 240.288 216.432 L 241.833 208.569 L 250.771 193.920 Z" fill="#F7C8A6" stroke="none"/>
  <path id="neighborhood-gedney-farms" class="neighborhood-region" data-neighborhood="Gedney Farms" data-source-drawing="33" d="M 245.907 527.613 L 248.179 527.627 L 293.564 506.230 L 283.600 481.119 L 280.775 467.294 L 298.361 462.833 L 304.193 461.769 L 304.193 464.162 L 302.740 466.982 L 303.424 471.339 L 306.925 484.289 C 307.119 486.420 308.512 488.254 310.512 489.014 C 314.129 491.956 316.459 496.189 317.009 500.818 L 321.759 534.541 L 320.477 535.908 L 324.322 551.117 L 327.007 554.008 L 312.472 571.097 L 316.124 582.479 L 317.547 586.609 L 320.254 591.474 L 316.731 600.758 L 322.092 609.639 L 315.162 612.897 L 315.392 614.871 L 285.693 628.215 L 272.173 596.805 L 271.659 592.840 L 268.237 584.045 L 262.427 567.896 L 257.898 553.883 L 251.285 540.417 L 245.907 527.613 Z" fill="#BFE3C0" stroke="none"/>
  <path id="neighborhood-new-york-presbyterian-hospital" class="neighborhood-region" data-neighborhood="New York Presbyterian Hospital" data-source-drawing="22" d="M 284.173 402.271 C 283.824 404.870 284.293 407.514 285.515 409.835 L 301.278 445.590 L 292.785 447.820 L 298.361 462.833 L 280.775 467.294 L 232.464 481.359 L 228.390 462.081 C 225.957 448.878 225.727 435.363 227.709 422.085 C 227.900 415.234 226.913 408.401 224.791 401.885 C 223.795 398.926 223.302 395.820 223.333 392.698 C 223.353 390.755 223.547 388.817 223.914 386.909 C 224.282 384.996 224.897 383.140 225.745 381.386 L 225.466 366.931 L 236.187 364.571 C 238.845 364.030 241.604 364.273 244.127 365.272 C 244.727 365.510 245.366 365.632 246.011 365.632 C 246.675 365.632 247.312 365.371 247.786 364.905 L 250.314 362.923 C 251.940 361.995 253.411 360.818 254.671 359.434 C 259.509 369.268 268.322 376.561 278.887 379.474 C 277.582 382.562 276.541 385.754 275.777 389.018 C 274.924 392.538 276.030 396.245 278.672 398.723 C 280.277 400.227 282.141 401.429 284.173 402.271 Z" fill="#F5E6A7" stroke="none"/>
  <path id="neighborhood-battle-hill" class="neighborhood-region" data-neighborhood="Battle Hill" data-source-drawing="1" d="M 37.288 363.748 L 42.980 367.873 C 53.326 351.870 69.576 340.602 88.190 336.523 L 97.677 353.879 L 105.845 373.101 C 107.085 374.442 108.692 375.388 110.465 375.824 C 111.013 384.336 106.868 392.468 99.657 397.026 L 96.193 398.429 L 92.975 399.253 L 82.808 411.268 L 74.220 422.821 L 63.412 440.229 C 65.494 444.376 63.835 449.425 59.700 451.531 C 55.672 452.858 52.646 456.215 51.744 460.358 L 18.249 397.907 L 37.288 363.748 Z" fill="#BFDCE8" stroke="none"/>
  <path id="neighborhood-fisher-hill" class="neighborhood-region" data-neighborhood="Fisher Hill" data-source-drawing="19" d="M 140.463 428.061 L 137.237 405.997 L 118.559 411.420 L 118.688 396.628 L 113.274 396.403 L 109.213 399.432 L 99.658 397.026 C 97.498 397.958 95.262 398.703 92.975 399.253 L 82.808 411.268 L 74.220 422.821 L 63.412 440.228 C 65.494 444.376 63.835 449.425 59.700 451.531 C 55.672 452.858 52.647 456.215 51.744 460.358 L 59.680 473.124 L 67.188 482.763 L 74.148 500.463 L 80.808 508.743 L 92.267 517.323 L 114.055 459.771 L 118.851 446.091 L 140.463 428.061 Z" fill="#BFE3C0" stroke="none"/>
  <path id="neighborhood-urban-core" class="neighborhood-region" data-neighborhood="Urban Core" data-source-drawing="11" d="M 155.403 395.500 L 167.824 389.516 L 163.996 379.505 L 134.338 385.346 C 135.838 392.144 136.807 399.049 137.237 405.997 L 118.559 411.420 L 118.688 396.629 L 113.274 396.403 L 109.214 399.432 L 99.658 397.026 C 106.868 392.469 111.014 384.336 110.465 375.824 L 110.574 367.770 L 112.642 367.716 L 111.862 353.977 L 144.366 350.848 L 179.315 332.236 L 198.262 368.230 L 199.615 373.497 L 201.210 373.445 L 204.177 367.941 L 214.067 368.214 L 225.466 366.932 L 225.746 381.387 C 224.118 384.934 223.294 388.797 223.334 392.699 L 210.609 394.389 C 206.772 395.143 203.159 396.769 200.049 399.141 C 194.541 403.116 189.163 407.270 183.924 411.595 L 174.578 415.297 L 169.441 404.978 L 168.182 404.936 L 159.056 412.549 L 155.403 395.500 Z" fill="#F7C8A6" stroke="none"/>
  <path id="neighborhood-soundview" class="neighborhood-region" data-neighborhood="Soundview" data-source-drawing="17" d="M 122.480 553.571 L 132.341 547.191 C 134.128 545.989 134.609 543.570 133.419 541.775 C 133.253 541.487 133.117 541.182 133.012 540.866 C 132.163 538.296 133.559 535.523 136.129 534.674 L 144.780 532.334 L 146.565 537.523 L 163.898 531.987 L 170.704 551.453 L 173.064 552.497 L 177.442 562.099 C 177.815 571.018 180.189 579.739 184.389 587.616 L 201.958 583.478 L 197.094 607.218 L 196.207 620.375 L 157.890 622.464 L 141.700 589.359 L 137.635 576.871 L 129.689 563.958 L 122.480 553.571 Z" fill="#F7C8A6" stroke="none"/>
  <path id="neighborhood-church-street" class="neighborhood-region" data-neighborhood="Church Street" data-source-drawing="9" d="M 119.264 353.364 L 118.471 344.954 L 114.535 340.067 L 114.472 338.290 L 120.738 326.428 C 119.503 317.490 119.476 308.427 120.656 299.482 L 127.012 263.606 C 133.998 259.196 141.678 255.996 149.728 254.138 L 156.430 279.707 L 159.822 288.984 L 165.570 304.339 L 179.314 332.236 L 144.365 350.848 L 119.264 353.364 Z" fill="#F5E6A7" stroke="none"/>
  <path id="neighborhood-north-broadway" class="neighborhood-region" data-neighborhood="North Broadway" data-source-drawing="5" d="M 118.552 254.638 L 128.094 257.498 L 127.012 263.606 C 133.999 259.197 141.678 255.996 149.729 254.138 C 161.367 252.246 173.195 256.172 181.393 264.649 L 187.378 260.950 C 182.482 249.866 178.807 238.280 176.419 226.399 L 175.729 209.062 C 174.738 200.797 173.301 192.590 171.428 184.479 L 129.663 180.033 L 129.645 184.844 L 132.529 188.363 L 130.359 196.407 L 118.537 254.710 Z" fill="#F7C8A6" stroke="none"/>
  <path id="neighborhood-eastview" class="neighborhood-region" data-neighborhood="Eastview" data-source-drawing="14" d="M 247.786 364.905 L 250.315 362.923 C 255.030 360.238 258.258 355.544 259.077 350.180 L 258.846 345.593 L 257.996 339.921 L 253.074 328.290 L 252.848 323.797 L 245.292 325.651 C 234.769 318.270 223.708 311.687 212.201 305.959 L 195.417 316.472 L 193.318 311.934 L 179.418 326.425 L 177.084 327.708 L 198.262 368.229 L 199.615 373.497 L 201.210 373.444 L 204.177 367.942 L 214.067 368.214 L 225.466 366.931 C 229.038 366.136 232.611 365.349 236.187 364.571 C 238.846 364.030 241.605 364.273 244.127 365.273 C 245.312 365.885 246.747 365.741 247.786 364.905 Z" fill="#BFE3C0" stroke="none"/>
  <path id="neighborhood-westminster-ridge" class="neighborhood-region" data-neighborhood="Westminster Ridge" data-source-drawing="8" d="M 181.393 264.648 L 187.379 260.950 C 182.481 249.865 178.807 238.279 176.420 226.398 L 175.729 209.061 L 197.692 208.621 L 199.372 197.649 L 202.444 197.675 C 206.955 202.918 210.328 209.042 212.347 215.657 L 208.718 221.168 L 210.465 224.662 L 230.760 232.860 L 223.184 245.310 L 223.347 254.601 L 220.104 266.372 L 220.998 271.583 C 216.692 281.605 214.903 292.527 215.787 303.399 L 212.201 305.959 L 209.568 307.608 C 201.760 301.744 195.784 293.775 192.342 284.637 C 190.427 277.161 186.662 270.287 181.393 264.648 Z" fill="#F5E6A7" stroke="none"/>
  <path id="neighborhood-havilands-manor" class="neighborhood-region" data-neighborhood="Havilands Manor" data-source-drawing="25" d="M 408.318 500.871 L 421.896 493.375 L 424.191 496.702 L 428.512 492.533 C 428.532 486.546 423.694 481.676 417.707 481.656 C 416.931 481.654 416.157 481.735 415.398 481.897 L 405.239 464.757 L 393.043 478.025 L 357.908 493.400 L 373.089 538.206 L 390.839 530.153 L 402.286 550.491 L 421.664 540.002 L 408.318 500.871 Z" fill="#F5E6A7" stroke="none"/>
  <path id="neighborhood-hillair-circle" class="neighborhood-region" data-neighborhood="Hillair Circle" data-source-drawing="39" d="M 205.533 669.508 C 209.927 664.593 213.706 659.162 216.786 653.334 L 264.111 646.472 L 264.454 646.009 L 267.473 645.982 L 267.486 645.466 L 268.482 645.489 L 269.956 647.229 L 270.250 648.801 L 270.915 648.801 L 274.066 647.617 L 274.948 647.638 L 275.882 650.138 L 276.445 654.597 L 278.944 655.000 L 282.586 656.759 L 288.995 657.420 L 290.128 649.385 L 289.803 647.359 L 293.375 645.390 L 300.464 663.208 L 305.107 674.065 C 306.367 676.169 306.794 678.669 306.303 681.072 L 295.109 679.619 L 295.365 676.372 L 264.521 695.426 L 258.538 694.230 L 254.266 693.888 L 250.182 692.461 L 242.827 691.976 L 235.372 686.698 L 231.488 685.955 L 231.474 683.927 L 226.494 680.112 L 226.433 676.501 L 224.977 676.107 L 224.021 675.060 L 221.396 674.954 C 221.257 675.615 220.701 676.108 220.028 676.171 C 219.179 676.249 218.427 675.625 218.349 674.776 L 218.258 673.562 L 213.949 673.016 L 210.884 672.106 L 205.533 669.508 Z" fill="#F7C8A6" stroke="none"/>
  <path id="neighborhood-gedney-manor" class="neighborhood-region" data-neighborhood="Gedney Manor" data-source-drawing="32" d="M 199.159 597.140 L 222.800 600.375 L 245.252 601.049 L 244.312 589.087 L 254.224 585.755 L 254.566 587.720 L 268.237 584.046 L 262.427 567.897 C 255.773 570.076 248.866 571.388 241.876 571.802 L 241.578 567.726 L 239.527 558.327 L 257.898 553.884 L 251.285 540.418 L 232.303 547.015 L 229.071 534.629 L 208.261 533.883 L 205.208 560.141 L 201.958 583.479 L 199.159 597.140 Z" fill="#BFDCE8" stroke="none"/>
  <path id="neighborhood-gedney-meadows" class="neighborhood-region" data-neighborhood="Gedney Meadows" data-source-drawing="36" d="M 285.693 628.215 L 315.392 614.871 L 315.162 612.898 L 322.092 609.639 L 328.599 622.650 L 344.930 615.014 L 345.932 616.835 L 356.746 623.633 L 354.480 627.190 L 351.181 628.251 L 356.947 639.610 C 347.694 644.779 338.964 650.833 330.879 657.687 C 320.746 659.554 310.607 661.395 300.464 663.208 L 293.375 645.390 L 285.693 628.215 Z" fill="#F5E6A7" stroke="none"/>
  <path id="neighborhood-good-counsel" class="neighborhood-region" data-neighborhood="Good Counsel" data-source-drawing="10" d="M 177.084 327.708 L 165.570 304.339 C 159.037 288.027 153.741 271.245 149.729 254.138 C 161.368 252.246 173.196 256.172 181.393 264.648 C 186.662 270.287 190.427 277.161 192.342 284.637 C 195.784 293.775 201.760 301.744 209.568 307.608 L 195.417 316.472 L 193.318 311.934 L 179.419 326.425 L 177.084 327.708 Z" fill="#BFDCE8" stroke="none"/>
  <path id="neighborhood-rocky-dell" class="neighborhood-region" data-neighborhood="Rocky Dell" data-source-drawing="30" d="M 214.520 657.343 C 211.909 661.669 208.901 665.741 205.534 669.508 L 197.212 665.507 L 175.103 644.360 L 164.920 632.242 L 157.891 622.463 L 196.208 620.375 L 224.219 617.025 C 224.540 626.031 223.487 635.034 221.095 643.723 C 219.332 648.458 217.131 653.017 214.520 657.343 Z" fill="#BFE3C0" stroke="none"/>
  <path id="neighborhood-old-oak-ridge" class="neighborhood-region" data-neighborhood="Old Oak Ridge" data-source-drawing="53" d="M 310.632 421.040 L 322.453 388.853 L 353.001 400.389 L 357.915 448.171 L 335.911 452.586 L 322.280 433.722 L 310.632 421.040 Z" fill="#F5E6A7" stroke="none"/>
  <path id="neighborhood-carhart" class="neighborhood-region" data-neighborhood="Carhart" data-source-drawing="21" d="M 223.333 392.699 C 223.302 395.821 223.795 398.926 224.791 401.886 C 226.913 408.402 227.900 415.235 227.709 422.086 C 225.727 435.364 225.957 448.879 228.390 462.082 C 225.616 457.988 221.786 454.722 217.305 452.630 L 194.886 441.735 L 183.924 411.595 C 189.162 407.270 194.540 403.116 200.048 399.141 C 203.158 396.769 206.771 395.143 210.608 394.389 L 223.333 392.699 Z" fill="#BFDCE8" stroke="none"/>
  <path id="neighborhood-gedney-park" class="neighborhood-region" data-neighborhood="Gedney Park" data-source-drawing="26" d="M 208.261 533.883 L 209.078 524.309 L 206.973 505.219 L 208.366 480.213 L 232.464 481.359 C 234.775 497.433 239.344 513.100 246.035 527.897 L 251.285 540.418 L 232.302 547.015 L 229.071 534.629 L 208.261 533.883 Z" fill="#F7C8A6" stroke="none"/>
  <path id="neighborhood-holbrooke" class="neighborhood-region" data-neighborhood="Holbrooke" data-source-drawing="35" d="M 254.627 648.160 L 244.191 620.277 L 244.191 618.211 L 240.704 611.465 L 243.803 610.830 L 249.841 606.165 L 253.571 602.812 C 255.221 601.583 257.256 600.983 259.308 601.122 C 261.296 600.915 263.173 600.107 264.690 598.806 L 272.173 596.805 L 285.693 628.215 L 293.375 645.390 L 289.803 647.360 L 290.129 649.385 L 289.645 651.572 L 288.995 657.420 L 282.586 656.759 L 278.944 655.000 L 276.446 654.597 L 275.882 650.138 L 274.949 647.638 L 274.066 647.617 L 270.915 648.801 L 270.250 648.801 L 269.957 647.229 L 268.482 645.489 L 267.507 645.467 L 267.474 645.982 L 264.455 646.010 L 264.111 646.472 L 254.627 648.160 Z" fill="#BFDCE8" stroke="none"/>
  <path id="neighborhood-saxon-woods" class="neighborhood-region" data-neighborhood="Saxon Woods" data-source-drawing="40" d="M 258.539 694.231 L 258.820 698.141 L 257.694 700.432 L 257.577 704.277 L 258.587 707.423 L 258.470 709.171 L 257.966 710.064 L 257.966 710.802 L 260.451 713.055 L 262.044 712.977 L 265.850 707.540 L 267.287 707.385 L 268.413 708.045 L 270.239 708.123 L 270.899 707.618 L 274.356 707.656 L 275.676 710.997 L 277.346 711.385 C 277.790 711.367 278.233 711.431 278.654 711.573 C 280.546 712.215 281.561 714.269 280.919 716.161 L 284.315 719.886 L 286.412 723.498 L 287.034 724.897 L 286.917 727.577 L 281.635 731.499 L 282.931 734.826 L 283.630 734.865 L 286.620 733.156 L 287.630 733.040 L 288.756 734.283 L 288.562 736.302 L 290.582 736.535 L 291.475 735.603 L 293.223 737.584 L 296.874 737.545 L 297.301 738.244 L 299.282 738.400 L 299.709 737.700 L 300.525 738.050 L 304.962 743.288 L 306.467 743.871 L 307.778 744.744 L 308.412 745.548 L 309.702 744.410 L 308.519 741.588 L 307.654 738.979 L 306.943 730.229 L 305.940 720.548 L 304.548 706.728 C 304.355 698.140 304.942 689.553 306.303 681.072 L 295.110 679.620 L 295.366 676.373 L 264.520 695.427 L 258.539 694.231 Z" fill="#F5E6A7" stroke="none"/>
  <path id="neighborhood-prospect-park" class="neighborhood-region" data-neighborhood="Prospect Park" data-source-drawing="15" d="M 92.267 517.322 L 109.913 470.038 L 124.602 487.386 L 139.996 515.172 L 144.780 532.334 L 136.129 534.674 Z" fill="#BFDCE8" stroke="#BFDCE8" stroke-width=".75"/>
  <path id="neighborhood-ferris-avenue" class="neighborhood-region" data-neighborhood="Ferris Avenue" data-source-drawing="2" d="M 110.465 375.823 C 108.692 375.387 107.085 374.441 105.845 373.101 L 97.678 353.878 L 88.190 336.523 C 84.585 332.252 80.257 328.650 75.403 325.880 L 86.075 319.524 L 87.803 320.580 L 92.507 320.964 L 94.715 322.116 L 102.587 323.076 L 101.627 318.180 L 103.163 317.316 L 102.011 313.572 L 99.707 311.460 C 101.018 307.712 103.506 304.489 106.800 302.273 L 106.903 301.138 C 104.881 300.593 103.667 298.531 104.171 296.498 L 104.016 293.714 L 106.233 293.095 L 104.171 289.692 L 113.853 259.105 L 115.173 258.280 L 115.338 256.465 L 117.304 255.195 L 118.078 254.576 L 114.984 251.792 L 115.036 249.884 L 117.304 246.635 L 116.015 243.026 L 116.298 234.099 C 115.625 232.238 113.948 230.924 111.980 230.716 L 111.527 229.389 L 110.818 225.296 L 111.012 223.008 L 112.011 222.622 L 113.203 222.815 L 117.102 225.909 L 119.004 225.941 L 120.680 223.427 L 123.709 221.526 L 123.709 215.662 L 123.468 214.534 L 123.871 213.446 L 123.999 208.608 L 123.516 207.254 L 124.902 203.161 L 125.042 198.702 L 126.895 196.386 L 130.359 196.406 L 118.553 254.637 L 108.491 301.897 L 108.433 319.509 L 110.788 343.178 L 111.862 353.976 L 112.642 367.716 L 110.574 367.770 L 110.465 375.823 Z" fill="#F5E6A7" stroke="none"/>
  <path id="neighborhood-burke-hospital" class="neighborhood-region" data-neighborhood="Burke Hospital" data-source-drawing="28" d="M 236.207 500.017 L 237.891 499.622 L 283.600 481.120 L 284.739 484.730 L 293.564 506.230 L 248.179 527.628 L 245.907 527.614 C 241.898 518.706 238.653 509.474 236.207 500.017 Z" fill="#F5E6A7" stroke="none"/>
  <path id="neighborhood-reynal-park" class="neighborhood-region" data-neighborhood="Reynal Park" data-source-drawing="34" d="M 216.758 653.389 L 254.627 648.161 L 244.191 620.277 L 244.191 618.212 L 240.703 611.466 L 238.361 612.293 L 237.285 611.611 L 237.330 600.811 L 222.799 600.375 L 221.656 617.332 L 224.218 617.026 C 224.540 626.032 223.487 635.035 221.095 643.724 C 219.868 647.017 218.429 650.228 216.787 653.335 Z" fill="#F5E6A7" stroke="none"/>
  <path id="neighborhood-brook-hills" class="neighborhood-region" data-neighborhood="Brook Hills" data-source-drawing="37" d="M 356.947 639.610 L 350.112 643.648 L 363.712 674.517 C 368.203 668.808 373.643 663.915 379.794 660.051 C 384.523 656.540 388.967 652.661 393.085 648.449 L 384.786 637.214 L 382.102 633.089 L 377.759 637.248 L 366.382 626.841 L 354.789 635.361 L 356.947 639.610 Z" fill="#BFDCE8" stroke="none"/>
  <path id="neighborhood-ferris-avenue-east-section" class="neighborhood-region" data-neighborhood="Ferris Avenue east section" data-source-drawing="3" d="M 111.862 353.976 L 119.264 353.364 L 118.471 344.954 L 114.536 340.067 L 114.472 338.289 L 120.738 326.427 C 119.504 317.490 119.477 308.426 120.657 299.481 L 128.094 257.498 L 118.537 254.710 L 108.491 301.897 L 108.433 319.510 L 111.862 353.976 Z" fill="#BFE3C0" stroke="none"/>
  <path id="neighborhood-white-plains-reservoir-basin" class="neighborhood-region" data-neighborhood="White Plains Reservoir basin" data-source-drawing="44" d="M 209.707 198.751 L 207.385 197.771 L 207.024 195.036 L 207.334 192.920 L 206.611 191.785 L 205.476 191.424 L 203.618 190.702 L 201.090 189.567 L 199.594 188.122 L 198.304 186.316 L 197.736 184.407 L 198.304 182.291 L 199.387 179.815 L 200.523 177.751 L 201.658 175.893 L 203.051 172.797 L 203.825 171.404 L 205.115 169.960 L 206.714 167.173 L 208.368 165.741 L 209.787 164.902 L 211.529 163.902 L 213.077 161.935 L 213.689 160.226 L 213.367 157.969 L 214.560 156.485 L 215.592 155.905 L 216.430 154.518 L 217.462 152.390 L 217.237 150.906 L 217.043 150.390 L 216.293 149.414 L 216.680 147.802 L 216.551 146.286 L 216.551 144.996 L 215.713 144.448 L 214.584 144.932 L 212.746 145.480 L 211.166 145.545 L 209.456 144.867 L 208.779 143.319 L 208.876 141.546 L 208.779 139.224 L 209.198 138.192 L 209.208 137.063 L 209.259 134.948 L 208.537 133.916 L 207.556 133.245 L 206.731 134.174 L 206.163 135.515 L 205.235 136.547 L 204.357 136.599 L 203.429 135.309 L 202.139 133.606 L 201.313 132.007 L 201.313 129.065 L 200.539 126.228 L 200.849 122.771 L 201.881 122.048 L 203.274 121.429 L 204.770 121.584 L 205.596 122.151 L 207.556 124.215 L 208.176 125.763 L 209.104 126.898 L 209.208 129.323 L 209.311 130.355 L 209.775 131.697 L 211.581 132.110 L 212.923 131.387 L 214.574 132.213 L 216.380 132.832 L 216.792 134.586 L 216.999 135.876 L 218.805 135.773 L 221.230 136.186 L 221.488 137.373 L 221.488 138.817 L 221.643 140.417 L 221.952 142.326 L 222.623 142.945 L 223.706 144.132 L 225.203 144.596 L 227.215 145.267 L 227.731 146.867 L 227.576 148.776 L 226.390 149.911 L 224.893 151.098 L 223.500 151.614 L 220.353 151.820 L 219.011 151.304 L 218.031 151.510 L 217.670 152.749 L 217.050 154.452 L 216.586 155.329 L 218.237 155.690 L 218.805 156.464 L 219.372 157.754 L 219.837 158.940 L 220.456 159.818 L 221.060 160.501 L 221.447 161.468 L 221.285 162.404 L 221.124 163.565 L 220.705 164.339 L 220.124 165.113 L 219.834 166.145 L 219.092 166.822 L 218.415 167.983 L 217.673 168.853 L 217.448 170.563 L 218.011 172.572 L 218.676 172.794 L 219.518 171.995 L 220.317 171.064 L 221.425 169.956 L 222.489 168.936 L 223.598 168.803 L 223.598 169.424 L 223.376 170.355 L 222.933 171.286 L 222.356 172.483 L 221.957 173.725 L 220.893 174.345 L 219.873 176.208 L 219.164 177.627 L 218.454 178.913 L 217.878 179.977 L 217.434 181.218 L 217.612 182.283 L 217.479 184.721 L 217.833 185.564 L 217.901 186.132 L 218.256 187.728 L 218.788 188.792 L 219.320 190.123 L 219.408 191.675 L 219.408 193.094 L 219.275 194.202 L 218.898 195.813 L 217.701 197.321 L 215.971 197.897 L 215.218 198.429 L 213.267 198.961 L 211.892 199.272 L 209.707 198.751 Z" fill="#F7C8A6" stroke="none"/>
  <path id="neighborhood-bryant-gardens" class="neighborhood-region" data-neighborhood="Bryant Gardens" data-source-drawing="27" d="M 236.207 500.017 C 234.617 493.871 233.368 487.643 232.464 481.359 L 280.775 467.294 L 283.600 481.120 L 237.891 499.622 L 236.207 500.017 Z" fill="#BFDCE8" stroke="none"/>
  <path id="neighborhood-old-mamaroneck-road" class="neighborhood-region" data-neighborhood="Old Mamaroneck Road" data-source-drawing="20" d="M 194.887 441.735 L 217.306 452.630 C 221.786 454.722 225.617 457.988 228.390 462.082 L 232.464 481.359 L 208.367 480.213 L 208.389 466.078 C 208.458 463.224 207.749 460.405 206.337 457.923 C 203.414 453.640 199.976 449.733 196.100 446.289 L 194.887 441.735 Z" fill="#BFE3C0" stroke="none"/>
  <path id="neighborhood-fulton-street" class="neighborhood-region" data-neighborhood="Fulton Street" data-source-drawing="0" d="M 42.980 367.873 C 53.326 351.870 69.575 340.602 88.189 336.523 C 84.584 332.253 80.256 328.651 75.402 325.881 L 73.587 327.861 L 71.690 327.943 L 66.245 331.821 L 65.997 333.058 L 61.047 333.553 L 40.588 357.643 L 37.288 363.748 L 42.980 367.873 Z" fill="#F7C8A6" stroke="none"/>
  <path id="neighborhood-health-center" class="neighborhood-region" data-neighborhood="Health Center" data-source-drawing="43" d="M 114.054 459.771 L 118.850 446.090 L 159.056 412.549 L 159.892 415.543 L 163.515 420.324 C 160.231 429.486 152.204 436.123 142.588 437.627 L 127.826 448.192 L 114.054 459.771 Z" fill="#D8C8F0" stroke="none"/>
  <path id="neighborhood-prospect-park-south-section" class="neighborhood-region" data-neighborhood="Prospect Park" data-source-drawing="16" d="M 136.130 534.674 C 133.559 535.523 132.164 538.296 133.013 540.866 C 133.117 541.182 133.253 541.486 133.419 541.775 C 134.610 543.570 134.128 545.989 132.342 547.191 L 122.481 553.571 L 112.112 536.463 L 92.268 517.322 Z" fill="#BFDCE8" stroke="#BFDCE8" stroke-width=".75"/>
  <path id="neighborhood-colonial-corners" class="neighborhood-region" data-neighborhood="Colonial Corners" data-source-drawing="31" d="M 199.159 597.140 L 222.800 600.375 L 222.381 606.586 L 221.656 617.332 L 196.207 620.376 L 197.094 607.218 L 199.159 597.140 Z" fill="#D8C8F0" stroke="none"/>
  <path id="neighborhood-government-center" class="neighborhood-region" data-neighborhood="Government Center" data-source-drawing="12" d="M 137.237 405.997 C 136.807 399.049 135.837 392.144 134.338 385.346 L 163.995 379.505 L 167.824 389.516 L 155.403 395.500 L 137.237 405.997 Z" fill="#F5E6A7" stroke="none"/>
  <path id="neighborhood-winbrook" class="neighborhood-region" data-neighborhood="Winbrook" data-source-drawing="13" d="M 140.463 428.061 L 137.237 405.997 L 155.403 395.500 L 159.056 412.550 Z" fill="#BFDCE8" stroke="none"/>
  <path id="neighborhood-idle-forest" class="neighborhood-region" data-neighborhood="Idle Forest" data-source-drawing="17-interior" d="M 177.130 558.733 L 205.208 560.141 L 201.958 583.479 L 184.389 587.616 C 180.189 579.739 177.815 571.018 177.442 562.099 L 177.130 558.733 Z" fill="#D8C8F0" stroke="none"/>
  <path id="neighborhood-gedney-circle" class="neighborhood-region" data-neighborhood="Gedney Circle" data-source-drawing="32-interior" d="M 239.527 558.327 L 257.898 553.884 L 262.427 567.897 C 255.773 570.076 248.866 571.388 241.876 571.802 L 241.578 567.726 Z" fill="#D8C8F0" stroke="none"/>
  <path id="neighborhood-gedney-commons" class="neighborhood-region" data-neighborhood="Gedney Commons" data-source-drawing="32-35-interior" d="M 244.312 589.087 L 254.224 585.755 L 254.566 587.720 L 268.237 584.046 L 272.173 596.805 L 264.690 598.806 C 263.173 600.107 261.296 600.915 259.308 601.122 C 257.256 600.983 255.221 601.583 253.571 602.812 L 249.841 606.165 L 243.803 610.830 L 240.704 611.465 L 245.252 601.049 Z" fill="#F2B8C6" stroke="none"/>
  <path id="neighborhood-gedney-commons-interior-fill" class="neighborhood-region" data-neighborhood="Gedney Commons" data-source-drawing="34-interior" d="M 237.330 600.811 L 245.252 601.049 L 240.704 611.465 L 238.361 612.293 L 237.285 611.611 Z" fill="#F2B8C6" stroke="#F2B8C6" stroke-width=".75"/>
</g>
<g inkscape:groupmode="layer" inkscape:label="0">
<g clip-path="url(#clip_1)">
<path transform="matrix(1,0,0,-1,42.9804,367.87254)" stroke-width=".709" stroke-linecap="round" stroke-linejoin="round" fill="none" stroke="#000000" d="M0 0C10.346 16.003 26.595 27.271 45.209 31.35 41.604 35.62 37.276 39.222 32.422 41.992L30.607 40.012 28.71 39.93 23.265 36.052 23.017 34.815 18.067 34.32-2.392 10.23-5.692 4.125 0 0Z"/>
</g>
<g clip-path="url(#clip_2)">
<path transform="matrix(1,0,0,-1,37.288,363.74754)" stroke-width="2" stroke-linecap="round" stroke-linejoin="round" fill="none" stroke="#000000" d="M0 0 5.692-4.125C16.038 11.878 32.288 23.146 50.902 27.225L60.389 9.869 68.557-9.353C69.797-10.694 71.404-11.64 73.177-12.076 73.725-20.588 69.58-28.72 62.369-33.278L58.905-34.681 55.687-35.505 45.52-47.52 36.932-59.073 26.124-76.481C28.206-80.628 26.547-85.677 22.412-87.783 18.384-89.11 15.358-92.467 14.456-96.61L-19.039-34.159 0 0Z"/>
</g>
<g clip-path="url(#clip_3)">
<path transform="matrix(1,0,0,-1,110.4648,375.8233)" stroke-width=".709" stroke-linecap="round" stroke-linejoin="round" fill="none" stroke="#000000" d="M0 0C-1.773 .436-3.38 1.382-4.62 2.722L-12.787 21.945-22.275 39.3C-25.88 43.571-30.208 47.173-35.062 49.943L-24.39 56.299-22.662 55.243-17.958 54.859-15.75 53.707-7.878 52.747-8.838 57.643-7.302 58.507-8.454 62.251-10.758 64.363C-9.447 68.111-6.959 71.334-3.665 73.55L-3.562 74.685C-5.584 75.23-6.798 77.292-6.294 79.325L-6.449 82.109-4.232 82.728-6.294 86.131 3.388 116.718 4.708 117.543 4.873 119.358 6.839 120.628 7.613 121.247 4.519 124.031 4.571 125.939 6.839 129.188 5.55 132.797 5.833 141.724C5.16 143.585 3.483 144.899 1.515 145.107L1.062 146.434 .353 150.527 .547 152.815 1.546 153.201 2.738 153.008 6.637 149.914 8.539 149.882 10.215 152.396 13.244 154.297V160.161L13.003 161.289 13.406 162.377 13.534 167.215 13.051 168.569 14.437 172.662 14.577 177.121 16.43 179.437 19.894 179.417 8.088 121.186-1.974 73.926-2.032 56.314 .323 32.645 1.397 21.847 2.177 8.107 .109 8.053 0 0Z"/>
<path transform="matrix(1,0,0,-1,111.8617,353.9761)" stroke-width=".709" stroke-linecap="round" stroke-linejoin="round" fill="none" stroke="#000000" d="M0 0 7.402 .612 6.609 9.022 2.674 13.909 2.61 15.687 8.876 27.549C7.642 36.486 7.615 45.55 8.795 54.495L16.232 96.478 6.675 99.266-3.371 52.079-3.429 34.466 0 0Z"/>
<path transform="matrix(1,0,0,-1,128.0942,257.498)" stroke-width=".709" stroke-linecap="round" stroke-linejoin="round" fill="none" stroke="#000000" d="M0 0C-.232 .051-.461 .118-.685 .2"/>
</g>
<g clip-path="url(#clip_4)">
<path transform="matrix(1,0,0,-1,118.5525,254.6377)" stroke-width="2" stroke-linecap="round" stroke-linejoin="round" fill="none" stroke="#000000" d="M0 0 9.542-2.86 8.46-8.968C15.446-4.559 23.126-1.358 31.176 .5 42.815 2.392 54.643-1.534 62.84-10.011L68.826-6.312C63.929 4.772 60.254 16.358 57.867 28.239L57.176 45.576C56.185 53.841 54.749 62.048 52.876 70.159L11.111 74.605 11.092 69.794 13.976 66.275 11.807 58.231-.015-.072"/>
</g>
<g clip-path="url(#clip_5)">
<path transform="matrix(1,0,0,-1,171.759,184.4212)" stroke-width=".709" stroke-linecap="round" stroke-linejoin="round" fill="none" stroke="#000000" d="M0 0 4.301-24.583 25.933-24.201 27.613-13.228 30.684-13.254C35.196-18.497 38.569-24.621 40.588-31.237L36.959-36.747 38.706-40.241 59-48.44 68.529-32.011 70.075-24.149 79.012-9.499 81.288-9.459C85.399-5.004 88.587 .221 90.666 5.916L99.865 22.388 101.128 22.316 102.969 30.292 105.85 34.275 106.086 38.842C100.178 36.88 93.764 37.095 88 39.446L89.365 42.648C90.508 48.294 90.246 54.135 88.603 59.656L94.204 70.984 91.449 72.933V78.443L93.062 84.693 93.129 86.305 89.299 86.104C88.414 89.107 88.561 92.32 89.717 95.229L94.26 105.369C91.602 106.925 89.265 108.974 87.375 111.405L86.686 115.166 85.111 118.48 79.762 118.431 78.193 117.427 77.225 113.095 74.945 113.033 58.681 117.441 58.795 115.554 58.09 114.488 50.564 116.278 52.538 126.694 54.848 135.639 43.97 139.167 33.162 119.318 25.3 95.664 12.489 96.318 12.615 93.63 14.631 89.808 3.711 86.784 3.069 80.485 15.76 58.613 19.522 45.628 22.409 42.509 22.583 39.968 21.37 34.771 17.955 26.606 25.027 14.844 20.087 5.55 22.884 2.775 22.896-.913 24.294-3.462 0 0Z"/>
<path transform="matrix(1,0,0,-1,250.7713,193.92029)" stroke-width=".709" stroke-linecap="round" stroke-linejoin="round" fill="none" stroke="#000000" d="M0 0 39.749-2.848 64.696-3.495C66.871-8.741 66.669-14.672 64.142-19.757L56.558-32.845 48.242-45.873 40.018-58.624 33.92-67.125 29.023-74.886 26.528-77.658 15.44-83.479 14.331-85.05H11.652L9.804-86.805 10.358-89.947C2.145-101.517-.858-115.994 2.076-129.876L-5.48-131.731C-16.002-124.349-27.064-117.767-38.57-112.039L-34.985-109.479C-35.869-98.608-34.08-87.685-29.774-77.664L-30.667-72.453-27.425-60.681-27.588-51.39-20.012-38.941-10.483-22.512-8.938-14.649 0 0Z"/>
<path transform="matrix(1,0,0,-1,181.3928,264.64845)" stroke-width=".709" stroke-linecap="round" stroke-linejoin="round" fill="none" stroke="#000000" d="M0 0 5.986 3.698C1.088 14.783-2.586 26.369-4.973 38.25L-5.664 55.587 16.299 56.027 17.979 66.999 21.051 66.973C25.562 61.73 28.935 55.606 30.954 48.991L27.325 43.48 29.072 39.986 49.367 31.788 41.791 19.338 41.954 10.047 38.711-1.724 39.605-6.935C35.299-16.957 33.51-27.879 34.394-38.751L30.808-41.311 28.175-42.96C20.367-37.096 14.391-29.127 10.949-19.989 9.034-12.513 5.269-5.639 0 0Z"/>
<path transform="matrix(1,0,0,-1,119.2641,353.3637)" stroke-width=".709" stroke-linecap="round" stroke-linejoin="round" fill="none" stroke="#000000" d="M0 0-.793 8.41-4.729 13.297-4.792 15.074 1.474 26.936C.239 35.874 .212 44.937 1.392 53.882L7.748 89.758C14.734 94.168 22.414 97.368 30.464 99.226L37.166 73.657 40.558 64.38 46.306 49.025 60.05 21.128 25.101 2.516 0 0Z"/>
<path transform="matrix(1,0,0,-1,177.0836,327.7082)" stroke-width=".709" stroke-linecap="round" stroke-linejoin="round" fill="none" stroke="#000000" d="M0 0-11.514 23.369C-18.047 39.681-23.343 56.463-27.355 73.57-15.716 75.462-3.888 71.536 4.309 63.06 9.578 57.421 13.343 50.547 15.258 43.071 18.7 33.933 24.676 25.964 32.484 20.1L18.333 11.236 16.234 15.774 2.335 1.283 0 0Z"/>
<path transform="matrix(1,0,0,-1,155.4026,395.4995)" stroke-width=".709" stroke-linecap="round" stroke-linejoin="round" fill="none" stroke="#000000" d="M0 0 12.421 5.984 8.593 15.995-21.065 10.154C-19.565 3.356-18.596-3.549-18.166-10.497L-36.844-15.92-36.715-1.129-42.129-.903-46.189-3.932-55.745-1.526C-48.535 3.031-44.389 11.164-44.938 19.676L-44.829 27.73-42.761 27.784-43.541 41.523-11.037 44.652 23.912 63.264 42.859 27.27 44.212 22.002 45.807 22.055 48.774 27.558 58.664 27.286 70.063 28.568 70.343 14.113C68.715 10.566 67.891 6.703 67.931 2.801L55.206 1.111C51.369 .357 47.756-1.269 44.646-3.641 39.138-7.616 33.76-11.77 28.521-16.095L19.175-19.797 14.038-9.478 12.779-9.436 3.653-17.05 0 0Z"/>
<path transform="matrix(1,0,0,-1,137.237,405.99684)" stroke-width=".709" stroke-linecap="round" stroke-linejoin="round" fill="none" stroke="#000000" d="M0 0C-.43 6.948-1.4 13.853-2.899 20.651L26.758 26.492 30.587 16.481 18.166 10.497 0 0Z"/>
<path transform="matrix(1,0,0,-1,140.4628,428.0607)" stroke-width=".709" stroke-linecap="round" stroke-linejoin="round" fill="none" stroke="#000000" d="M0 0 18.593 15.511 14.94 32.561-3.226 22.064 0 0Z"/>
<path transform="matrix(1,0,0,-1,247.7858,364.9052)" stroke-width=".709" stroke-linecap="round" stroke-linejoin="round" fill="none" stroke="#000000" d="M0 0 2.529 1.982C7.244 4.667 10.472 9.361 11.291 14.725L11.06 19.312 10.21 24.984 5.288 36.615 5.062 41.108-2.494 39.254C-13.017 46.635-24.078 53.218-35.585 58.946L-52.369 48.433-54.468 52.971-68.368 38.48-70.702 37.197-49.524-3.324-48.171-8.592-46.576-8.539-43.609-3.037-33.719-3.309-22.32-2.026C-18.748-1.231-15.175-.444-11.599 .334-8.94 .875-6.181 .632-3.659-.368-2.474-.98-1.039-.836 0 0Z"/>
<path transform="matrix(1,0,0,-1,92.2672,517.3224)" stroke-width=".709" stroke-linecap="round" stroke-linejoin="round" fill="none" stroke="#000000" d="M0 0 17.646 47.284 32.335 29.936 47.729 2.15 52.513-15.012 43.862-17.352"/>
<path transform="matrix(1,0,0,-1,136.1297,534.6742)" stroke-width=".709" stroke-linecap="round" stroke-linejoin="round" fill="none" stroke="#000000" d="M0 0C-2.571-.849-3.966-3.622-3.117-6.192-3.013-6.508-2.877-6.812-2.711-7.101-1.52-8.896-2.002-11.315-3.788-12.517L-13.649-18.897-24.018-1.789-43.862 17.352"/>
<path transform="matrix(1,0,0,-1,122.4803,553.57107)" stroke-width=".709" stroke-linecap="round" stroke-linejoin="round" fill="none" stroke="#000000" d="M0 0 9.861 6.38C11.648 7.582 12.129 10.001 10.939 11.796 10.773 12.084 10.637 12.389 10.532 12.705 9.683 15.275 11.079 18.048 13.649 18.897L22.3 21.237 24.085 16.048 41.418 21.584 48.224 2.118 50.584 1.074 54.962-8.528C55.335-17.447 57.709-26.168 61.909-34.045L79.478-29.907 74.614-53.647 73.727-66.804 35.41-68.893 19.22-35.788 15.155-23.3 7.209-10.387 0 0Z"/>
</g>
<g clip-path="url(#clip_6)">
<path transform="matrix(1,0,0,-1,127.8267,448.19163)" stroke-width="2" stroke-linecap="round" stroke-linejoin="round" fill="none" stroke="#000000" d="M0 0 14.762 10.565C24.378 12.069 32.404 18.705 35.688 27.867L32.065 32.648 31.229 35.642 40.355 43.256 41.614 43.215 46.751 32.896 56.097 36.597 67.06 6.457 68.273 1.903C72.149-1.541 75.587-5.449 78.51-9.731 79.922-12.213 80.631-15.032 80.562-17.886L80.539-32.021 79.147-57.028 81.251-76.117 80.434-85.691 77.382-111.949 49.303-110.541 45.238-104.305 42.878-103.261 36.072-83.796 18.739-89.331 12.17-66.981-3.225-39.194-17.913-21.846-13.772-11.579 0 0 .006 .002"/>
<path transform="matrix(1,0,0,-1,140.4628,428.0607)" stroke-width="2" stroke-linecap="round" stroke-linejoin="round" fill="none" stroke="#000000" d="M0 0-3.226 22.064-21.904 16.641-21.775 31.433-27.189 31.658-31.25 28.629-40.805 31.035C-42.965 30.103-45.201 29.358-47.488 28.808L-57.655 16.793-66.243 5.24-77.051-12.167C-74.969-16.315-76.628-21.364-80.763-23.47-84.791-24.797-87.816-28.154-88.719-32.297L-80.783-45.063-73.275-54.702-66.315-72.402-59.655-80.682-48.196-89.262-26.408-31.71-21.612-18.03 0 0Z"/>
</g>
<g clip-path="url(#clip_7)">
<path transform="matrix(1,0,0,-1,194.8866,441.7347)" stroke-width=".709" stroke-linecap="round" stroke-linejoin="round" fill="none" stroke="#000000" d="M0 0 22.419-10.895C26.899-12.987 30.73-16.253 33.503-20.347L37.577-39.624 13.48-38.478 13.502-24.343C13.571-21.489 12.862-18.67 11.45-16.188 8.527-11.905 5.089-7.998 1.213-4.554L0 0Z"/>
</g>
<g clip-path="url(#clip_8)">
<path transform="matrix(1,0,0,-1,223.3334,392.69853)" stroke-width="2" stroke-linecap="round" stroke-linejoin="round" fill="none" stroke="#000000" d="M0 0C-.031-3.122 .462-6.227 1.458-9.187 3.58-15.703 4.567-22.536 4.376-29.387 2.394-42.665 2.624-56.18 5.057-69.383 2.283-65.289-1.547-62.023-6.028-59.931L-28.447-49.036-39.409-18.896C-34.171-14.571-28.793-10.417-23.285-6.442-20.175-4.07-16.562-2.444-12.725-1.69L0 0Z"/>
</g>
<g clip-path="url(#clip_9)">
<path transform="matrix(1,0,0,-1,284.1731,402.27143)" stroke-width=".709" stroke-linecap="round" stroke-linejoin="round" fill="none" stroke="#000000" d="M0 0C-.349-2.599 .12-5.243 1.342-7.564L17.105-43.319 8.612-45.549 14.188-60.562-3.398-65.023-51.709-79.088-55.783-59.81C-58.216-46.607-58.446-33.092-56.464-19.814-56.273-12.963-57.26-6.13-59.382 .386-60.378 3.345-60.871 6.451-60.84 9.573-60.82 11.516-60.626 13.454-60.259 15.362-59.891 17.275-59.276 19.131-58.428 20.885L-58.707 35.34-47.986 37.7C-45.328 38.241-42.569 37.998-40.046 36.999-39.446 36.761-38.807 36.639-38.162 36.639-37.498 36.639-36.861 36.9-36.387 37.366L-33.859 39.348C-32.233 40.276-30.762 41.453-29.502 42.837-24.664 33.003-15.851 25.71-5.286 22.797-6.591 19.709-7.632 16.517-8.396 13.253-9.249 9.733-8.143 6.026-5.501 3.548-3.896 2.044-2.032 .842 0 0Z"/>
<path transform="matrix(1,0,0,-1,335.9109,452.5852)" stroke-width=".709" stroke-linecap="round" stroke-linejoin="round" fill="none" stroke="#000000" d="M0 0C-7.163 11.468-15.647 22.056-25.279 31.546L-13.459 63.732 17.09 52.196 22.004 4.415 0 0Z"/>
</g>
<g clip-path="url(#clip_10)">
<path transform="matrix(1,0,0,-1,357.9146,448.17024)" stroke-width=".709" stroke-linecap="round" stroke-linejoin="round" fill="none" stroke="#000000" d="M0 0C9.364 .968 18.814-.643 27.329-4.659 31.796-6.941 36.835-7.861 41.82-7.303L57.483-33.727C58.242-33.564 59.017-33.483 59.793-33.486 65.78-33.506 70.618-38.375 70.598-44.363L66.276-48.532 63.981-45.204 50.404-52.701 63.75-91.832 44.371-102.32 54.427-120.317 68.196-112.851 101.119-167.131C103.436-166.08 105.149-164.03 105.77-161.563L106.076-153.913C107.787-149.425 110.599-145.44 114.254-142.323 115.381-140.353 115.83-138.068 115.531-135.818 114.429-133.72 114.747-131.159 116.327-129.393 117.866-128.168 118.803-126.339 118.897-124.375 119.534-119.691 119.8-114.964 119.693-110.239L118.53-105.71 118.469-102.528 117.655-98.262C117.745-96.416 116.322-94.846 114.476-94.755 114.291-94.746 114.106-94.752 113.922-94.774H104.803C103.927-91.697 101.884-89.084 99.109-87.491L97.028-84.125 91.398-76.659 85.585-69.193 83.145-64.568 83.025-62.441 81.099-58.568 80.979-56.871 85.036-53.447C80.389-47.76 76.739-41.327 74.239-34.422L57.065 2.805C54.521 8.895 50.793 14.419 46.099 19.058 32.827 30.171 18.735 40.266 3.943 49.256-6.742 55.779-18.232 60.878-30.238 64.423-39.661 65.636-49.149 66.278-58.65 66.346-65.517 66.23-72.368 67.02-79.028 68.695L-80.785 63.99-82.138 59.152C-82.986 53.269-79.423 47.645-73.742 45.899-63.928 41.178-54.982 34.833-47.283 27.131L-35.462 59.317-4.913 47.781 0 0Z"/>
</g>
<g clip-path="url(#clip_11)">
<path transform="matrix(1,0,0,-1,408.3183,500.8709)" stroke-width=".709" stroke-linecap="round" stroke-linejoin="round" fill="none" stroke="#000000" d="M0 0 13.578 7.496 15.873 4.169 20.194 8.338C20.214 14.325 15.376 19.195 9.389 19.215 8.613 19.217 7.839 19.136 7.08 18.974L-3.079 36.114-15.275 22.846-50.41 7.471-35.229-37.335-17.479-29.282-6.032-49.62 13.346-39.131 0 0Z"/>
<path transform="matrix(1,0,0,-1,208.2612,533.88296)" stroke-width=".709" stroke-linecap="round" stroke-linejoin="round" fill="none" stroke="#000000" d="M0 0 .817 9.574-1.288 28.664 .105 53.67 24.203 52.524C26.514 36.45 31.083 20.783 37.774 5.986L43.024-6.535 24.041-13.132 20.81-.746 0 0Z"/>
<path transform="matrix(1,0,0,-1,236.2069,500.0165)" stroke-width=".709" stroke-linecap="round" stroke-linejoin="round" fill="none" stroke="#000000" d="M0 0C-1.59 6.146-2.839 12.374-3.743 18.658L44.568 32.723 47.393 18.897 1.684 .394 0 0Z"/>
<path transform="matrix(1,0,0,-1,236.2069,500.0165)" stroke-width=".709" stroke-linecap="round" stroke-linejoin="round" fill="none" stroke="#000000" d="M0 0 1.684 .394 47.393 18.897 48.532 15.287 57.357-6.214 11.972-27.611 9.7-27.597C5.691-18.689 2.446-9.457 0 0Z"/>
<path transform="matrix(1,0,0,-1,205.5335,669.5083)" stroke-width=".709" stroke-linecap="round" stroke-linejoin="round" fill="none" stroke="#000000" d="M0 0-.342-6.323"/>
<path transform="matrix(1,0,0,-1,214.5198,657.3434)" stroke-width=".709" stroke-linecap="round" stroke-linejoin="round" fill="none" stroke="#000000" d="M0 0C-2.611-4.326-5.619-8.398-8.986-12.165L-17.308-8.164-39.417 12.983-49.6 25.101-56.629 34.88-18.312 36.968 9.699 40.318C10.02 31.312 8.967 22.309 6.575 13.62 4.812 8.885 2.611 4.326 0 0"/>
</g>
<path transform="matrix(1,0,0,-1,199.159,597.1395)" stroke-width=".709" stroke-linecap="round" stroke-linejoin="round" fill="none" stroke="#000000" d="M0 0 23.641-3.235 23.222-9.446 22.497-20.192-2.952-23.236-2.065-10.078 0 0Z"/>
<g clip-path="url(#clip_12)">
<path transform="matrix(1,0,0,-1,199.159,597.1395)" stroke-width=".709" stroke-linecap="round" stroke-linejoin="round" fill="none" stroke="#000000" d="M0 0 23.641-3.235 46.093-3.909 45.153 8.053 55.065 11.385 55.407 9.42 69.078 13.094 63.268 29.243C56.614 27.064 49.707 25.752 42.717 25.338L42.419 29.414 40.368 38.813 58.739 43.256 52.126 56.722 33.144 50.125 29.912 62.511 9.102 63.257 6.049 36.999 2.799 13.661 0 0Z"/>
</g>
<g clip-path="url(#clip_13)">
<path transform="matrix(1,0,0,-1,245.9068,527.6134)" stroke-width="2" stroke-linecap="round" stroke-linejoin="round" fill="none" stroke="#000000" d="M0 0 2.272-.014 47.657 21.383 37.693 46.494 34.868 60.319 52.454 64.78 58.286 65.844V63.451L56.833 60.631 57.517 56.274 61.018 43.324C61.212 41.193 62.605 39.359 64.605 38.599 68.222 35.657 70.552 31.424 71.102 26.795L75.852-6.928 74.57-8.295 78.415-23.504 81.1-26.395 66.565-43.484 70.217-54.866 71.64-58.996 74.347-63.861 70.824-73.145 76.185-82.026 69.255-85.284 69.485-87.258 39.786-100.602 26.266-69.192 25.752-65.227 22.33-56.432 16.52-40.283 11.991-26.27 5.378-12.804 0 0Z"/>
</g>
<g clip-path="url(#clip_14)">
<path transform="matrix(1,0,0,-1,216.7581,653.38858)" stroke-width=".709" stroke-linecap="round" stroke-linejoin="round" fill="none" stroke="#000000" d="M0 0 37.869 5.228 27.433 33.112V35.177L23.945 41.923 21.603 41.096 20.527 41.778 20.572 52.578 6.041 53.014 4.898 36.057 7.46 36.363C7.782 27.357 6.729 18.354 4.337 9.665 3.11 6.372 1.671 3.161 .029 .054"/>
</g>
<g clip-path="url(#clip_15)">
<path transform="matrix(1,0,0,-1,254.6269,648.1602)" stroke-width=".709" stroke-linecap="round" stroke-linejoin="round" fill="none" stroke="#000000" d="M0 0-10.436 27.883V29.949L-13.923 36.695-10.824 37.33-4.786 41.995-1.056 45.348C.594 46.577 2.629 47.177 4.681 47.038 6.669 47.245 8.546 48.053 10.063 49.354L17.546 51.355 31.066 19.945 38.748 2.77 35.176 .8 35.502-1.225 35.018-3.412 34.368-9.26 27.959-8.599 24.317-6.84 21.819-6.437 21.255-1.978 20.322 .522 19.439 .543 16.288-.641H15.623L15.33 .931 13.855 2.671 12.88 2.693 12.847 2.178 9.828 2.15 9.484 1.688 0 0Z"/>
</g>
<g clip-path="url(#clip_16)">
<path transform="matrix(1,0,0,-1,285.6927,628.2151)" stroke-width="2" stroke-linecap="round" stroke-linejoin="round" fill="none" stroke="#000000" d="M0 0 29.699 13.344 29.469 15.317 36.399 18.576 42.906 5.565 59.237 13.201 60.239 11.38 71.053 4.582 68.787 1.025 65.488-.036 71.254-11.395C62.001-16.564 53.271-22.618 45.186-29.472 35.053-31.339 24.914-33.18 14.771-34.993L7.682-17.175 0 0Z"/>
</g>
<g clip-path="url(#clip_17)">
<path transform="matrix(1,0,0,-1,356.9465,639.61)" stroke-width=".709" stroke-linecap="round" stroke-linejoin="round" fill="none" stroke="#000000" d="M0 0-6.834-4.038 6.766-34.907C11.257-29.198 16.697-24.305 22.847-20.441 27.577-16.93 32.021-13.051 36.138-8.839L27.84 2.396 25.155 6.521 20.813 2.362 9.435 12.769-2.157 4.249 0 0Z"/>
<path transform="matrix(1,0,0,-1,221.3965,674.9542)" stroke-width=".709" stroke-linecap="round" stroke-linejoin="round" fill="none" stroke="#000000" d="M0 0 .14 .359"/>
<path transform="matrix(1,0,0,-1,205.5335,669.5083)" stroke-width=".709" stroke-linecap="round" stroke-linejoin="round" fill="none" stroke="#000000" d="M0 0C4.394 4.915 8.173 10.346 11.253 16.174L58.578 23.036 58.921 23.499 61.94 23.526 61.952 24.042 62.948 24.019 64.423 22.279 64.716 20.707H65.382L68.533 21.891 69.415 21.87 70.348 19.37 70.912 14.911 73.411 14.508 77.052 12.749 83.461 12.088 84.595 20.123 84.27 22.149 87.841 24.118 94.93 6.3 99.573-4.557C100.834-6.661 101.261-9.161 100.77-11.564L89.576-10.111 89.832-6.864 58.987-25.918 53.005-24.722 48.733-24.38 44.649-22.953 37.294-22.468 29.839-17.19 25.955-16.447 25.941-14.419 20.961-10.604 20.9-6.993 19.443-6.599 18.488-5.552 15.863-5.446C15.723-6.107 15.168-6.6 14.495-6.663 13.646-6.741 12.894-6.117 12.816-5.268L12.725-4.054 8.416-3.508 5.351-2.598 0 0Z"/>
<path transform="matrix(1,0,0,-1,258.5389,694.2305)" stroke-width=".709" stroke-linecap="round" stroke-linejoin="round" fill="none" stroke="#000000" d="M0 0 .281-3.91-.845-6.201-.962-10.046 .048-13.192-.069-14.94-.573-15.833V-16.571L1.912-18.824 3.505-18.746 7.311-13.309 8.748-13.154 9.874-13.814 11.7-13.892 12.36-13.387 15.817-13.425 17.137-16.766 18.807-17.154C19.251-17.136 19.694-17.2 20.115-17.342 22.007-17.984 23.022-20.038 22.38-21.931L25.776-25.655 27.873-29.267 28.495-30.666 28.378-33.346 23.096-37.268 24.392-40.595 25.091-40.634 28.081-38.925 29.091-38.809 30.217-40.052 30.023-42.071 32.043-42.304 32.936-41.372 34.684-43.353 38.335-43.314 38.762-44.013 40.743-44.169 41.17-43.469 41.986-43.819 46.423-49.057 47.928-49.64 49.239-50.513 49.873-51.317 51.163-50.179 49.98-47.357 49.115-44.748 48.404-35.998 47.401-26.317 46.009-12.497C45.816-3.909 46.403 4.678 47.764 13.159L36.571 14.611 36.827 17.858 5.981-1.196 0 0Z"/>
</g>
<g clip-path="url(#clip_18)">
<path transform="matrix(1,0,0,-1,314.4022,794.80416)" stroke-width="2" stroke-linecap="round" stroke-linejoin="round" fill="none" stroke="#000000" d="M0 0-2.548 2.175-2.486 4.226-1.056 5.717-2.734 8.389V9.881C.182 10.561 2.196 13.228 2.051 16.219L1.74 21.874-2.801 41.169C-3.124 44.101-4.225 46.893-5.99 49.256L-4.7 50.394C-5.522 52.149-6.206 53.965-6.748 55.826L-7.459 64.575C-8.279 72.407-9.078 80.241-9.854 88.077-10.278 92.362-10.179 96.683-9.56 100.944-8.942 105.19-8.39 109.444-7.903 113.707-7.765 114.92-7.811 116.148-8.04 117.348-8.268 118.54-8.692 119.686-9.295 120.739L-13.938 131.596 16.477 137.117C22.539 142.257 28.968 146.949 35.711 151.156L49.31 120.287C53.801 125.996 59.241 130.89 65.392 134.753 70.121 138.264 74.565 142.143 78.682 146.355L92.382 160.067 98.524 166.185 102.885 170.277 104.874 172.037 106.021 172.381 106.786 172.037 107.13 169.742 107.964 168.383 120.148 150.197 115.252 145.485 115.619 136.611C109.617 127.725 104.649 118.182 100.813 108.168 100.326 106.896 99.945 105.586 99.674 104.252 99.351 102.66 98.125 101.406 96.541 101.047L96.256 98.911 92.98 90.366 92.838 86.592 86.174 79.216C85.981 78.997 85.762 78.804 85.52 78.641 83.968 77.597 81.863 78.009 80.819 79.561L78.524 79.637C77.769 78.372 76.156 77.919 74.853 78.604 74.665 78.703 74.451 78.743 74.241 78.719 73.674 78.655 73.127 78.472 72.634 78.184L69.957 76.769 66.285 76.233C64.322 75.487 62.813 73.879 62.193 71.873L59.668 66.251 59.436 65.184 59.512 62.354 60.277 59.868C60.801 55.717 60.827 51.518 60.354 47.361L58.824 45.028 58.786 40.477 57.868 39.214 53.202 39.176 50.754 36.843 50.715 34.089C46.566 32.919 43.442 29.495 42.656 25.256L41.309 23.848 39.29 23.42C37.134 22.008 35.45 19.983 34.455 17.607 33.96 16.424 33.278 15.329 32.436 14.363 31.412 13.19 30.04 12.375 28.519 12.038L24.113 8.06 23.244 7.664 15.76 7.643 10.237 4.331 8.723 4.036 5.347 3.752 4.6 3.454 2.971 1.213 2.105 .525 0 0Z"/>
</g>
<g clip-path="url(#clip_19)">
<path transform="matrix(1,0,0,-1,393.0845,648.4491)" stroke-width="2" stroke-linecap="round" stroke-linejoin="round" fill="none" stroke="#000000" d="M0 0-10.983 15.36-15.325 11.201-26.703 21.608-38.295 13.088-41.903 20.198-38.605 21.259-36.36 24.829-47.152 31.614-48.155 33.435-64.485 25.799-70.993 38.81-76.354 47.691-72.83 56.975-75.538 61.84-80.613 77.352-66.078 94.441-68.763 97.332-72.608 112.541-71.326 113.908-76.075 147.631C-76.626 152.26-78.956 156.493-82.572 159.434-83.562 159.81-84.425 160.459-85.061 161.306-85.653 162.154-86.03 163.133-86.16 164.16L-89.661 177.109-90.345 181.467-88.892 184.287V186.679L-94.723 185.616-100.299 200.629-91.807 202.859-107.57 238.614C-108.792 240.935-109.261 243.578-108.911 246.178-99.097 241.457-90.152 235.112-82.453 227.41-72.821 217.92-64.336 207.332-57.174 195.864L-35.17 200.279C-25.806 201.247-16.355 199.636-7.841 195.62-5.59 194.558-3.224 193.757-.79 193.233 1.655 192.706 4.174 192.619 6.65 192.976L12.155 183.692-.041 170.424-35.177 155.049-19.995 110.243-2.246 118.296 9.201 97.959 19.257 79.962 33.026 87.428 65.949 33.148 62.168 29.395 62.107 26.825 60.393 24.683 57.64 22.786 53.907 19.053 50.174 14.464 48.644 12.322 47.359 10.792 43.565 7.12 42.647 5.652 41.465 3.842 28.448 23.387 28.104 25.682 27.339 26.026 26.191 25.682 0 0C.562 .415 1.058 .912 1.472 1.474"/>
</g>
<text xml:space="preserve" transform="matrix(1 0 -0 1 0 841.89)" font-size="9.5339" font-family="Arial, Helvetica, sans-serif"><tspan y="-140.5029" x="331.7441 338.6276 343.92845 348.69538 353.99623 359.29707 364.5979 366.71443">Rosedale</tspan></text>
<text xml:space="preserve" transform="matrix(1 0 -0 1 0 841.89)" font-size="9.539" font-family="Arial, Helvetica, sans-serif"><tspan y="-208.2109" x="303.3135 310.73487 316.03855 321.34223 326.6459 331.9496">Gedney</tspan><tspan y="-196.9549" x="299.6887 307.63468 312.93836 318.24205 323.54573 328.8494 335.73655">Meadows</tspan></text>
<text xml:space="preserve" transform="matrix(1 0 -0 1 0 841.89)" font-size="8.5851" font-family="Arial, Helvetica, sans-serif"><tspan y="-195.5547" x="359.0859 364.81217 367.671 372.4443 377.21763">Brook</tspan><tspan y="-185.42429" x="362.27958 368.47804 370.3839 372.2898 374.19569">Hills</tspan></text>
<text xml:space="preserve" transform="matrix(1 0 -0 1 0 841.89)" font-size="9.539" font-family="Arial, Helvetica, sans-serif"><tspan y="-268.3945" x="338.6768 345.56394 350.8676 354.0441 356.69596 361.99964 364.6515 371.014 373.66587 376.84236 382.14604 387.4497">North Street</tspan></text>
<text xml:space="preserve" transform="matrix(1 0 -0 1 0 841.89)" font-size="8.5851" font-family="Arial, Helvetica, sans-serif"><tspan y="-340.7422" x="368.4619 374.66038 379.4337 383.72624 385.6321 387.538 392.3113 397.08464 401.85795">Havilands</tspan><tspan y="-330.61177" x="374.87498 382.02638 386.79969 391.573 396.3463">Manor</tspan></text>
<text xml:space="preserve" transform="matrix(1 0 -0 1 0 841.89)" font-size="9.539" font-family="Arial, Helvetica, sans-serif"><tspan y="-297.541" x="275.6499 283.07127 288.37495 293.67863 298.9823 304.28599">Gedney</tspan><tspan y="-286.28498" x="278.81687 284.6452 289.94889 293.12538 301.07136">Farms</tspan></text>
<text xml:space="preserve" transform="matrix(.96925279 -.24606738 .24606738 .96925279 0 841.89)" font-size="5.999983" font-family="Arial, Helvetica, sans-serif"><tspan y="-210.50296" x="299.51313">G</tspan><tspan y="-210.50298" x="304.1811">e</tspan><tspan y="-210.50299" x="307.5171">d</tspan><tspan y="-210.503" x="310.8531">n</tspan><tspan y="-210.50302" x="314.1891">e</tspan><tspan y="-210.50305" x="317.52507">y</tspan><tspan y="-201.29299" x="303.2691 307.6011 308.9331 310.9311">Circ</tspan><tspan y="-201.29297" x="313.93107">l</tspan><tspan y="-201.29299" x="315.26307">e</tspan></text>
<text xml:space="preserve" transform="matrix(.93367 -.35813458 .35813458 .93367 0 841.89)" font-size="5.999979" font-family="Arial, Helvetica, sans-serif"><tspan y="-141.64264" x="317.18867 321.85664">Ge</tspan><tspan y="-141.64266" x="325.19264">d</tspan><tspan y="-141.64264" x="328.5286">n</tspan><tspan y="-141.64266" x="331.8646">e</tspan><tspan y="-141.64264" x="335.2006">y</tspan><tspan y="-132.94268" x="313.50468">C</tspan><tspan y="-132.94269" x="317.83668">o</tspan><tspan y="-132.94268" x="321.17265 326.17063 331.1686 334.5046 337.84059">mmons</tspan></text>
<text xml:space="preserve" transform="matrix(1 0 -0 1 0 841.89)" font-size="8.583" font-family="Arial, Helvetica, sans-serif"><tspan y="-263.417" x="208.5083 215.18589 219.95804 224.7302 229.50235 234.2745">Gedney</tspan><tspan y="-253.28905" x="211.16045 218.31009 223.08225 227.8544 232.62656">Manor</tspan></text>
<text xml:space="preserve" transform="matrix(1 0 -0 1 0 841.89)" font-size="6" font-family="Arial, Helvetica, sans-serif"><tspan y="-235.249" x="198.6719 203.0039 206.3399 207.6719 211.0079 214.3439 215.6759 219.0119">Colonial</tspan><tspan y="-226.495" x="198.7619 203.0939 206.4299 208.4279 211.7639 215.0999 217.0979">Corners</tspan></text>
<text xml:space="preserve" transform="matrix(1 0 -0 1 0 841.89)" font-size="7.3424" font-family="Arial, Helvetica, sans-serif"><tspan y="-203.3525" x="225.0283 230.32952 234.4119 238.0831 242.16548 246.24787">Reynal</tspan><tspan y="-194.68846" x="228.62609 233.52347 237.60585 240.05088">Park</tspan></text>
<text xml:space="preserve" transform="matrix(1 0 -0 1 0 841.89)" font-size="7.7288" font-family="Arial, Helvetica, sans-serif"><tspan y="-213.9893" x="248.4585 254.0387 258.3359 260.0517 264.3489 266.9226 271.21983 275.51704 279.38145">Holbrooke</tspan></text>
<text xml:space="preserve" transform="matrix(1 0 -0 1 0 841.89)" font-size="8.5851" font-family="Arial, Helvetica, sans-serif"><tspan y="-171.7471" x="233.939 240.13744 242.04334 243.94924 245.85514 250.62845 252.53435 255.39319 257.77986 263.9783 265.8842 268.743 273.03556 274.94145">Hillair Circle</tspan></text>
<text xml:space="preserve" transform="matrix(1 0 -0 1 0 841.89)" font-size="8.583" font-family="Arial, Helvetica, sans-serif"><tspan y="-205.7051" x="176.6118 182.80873 187.58089 191.87239 196.1639 200.4554 202.84148 209.0384 213.81056 215.71599">Rocky Dell</tspan></text>
<text xml:space="preserve" transform="matrix(1 0 -0 1 0 841.89)" font-size="7.7248" font-family="Arial, Helvetica, sans-serif"><tspan y="-256.7275" x="141.9214 147.07384 151.36882 155.6638 159.95879 164.25377 168.11617 169.83107 174.12606">Soundview</tspan></text>
<text xml:space="preserve" transform="matrix(1 0 -0 1 0 841.89)" font-size="8.583" font-family="Arial, Helvetica, sans-serif"><tspan y="-144.291" x="275.8135 281.53837 286.31053 290.60203 295.37419">Saxon</tspan><tspan y="-134.16306" x="274.6462 282.59236 287.3645 292.13667 296.9088">Woods</tspan></text>
<text xml:space="preserve" transform="matrix(1 0 -0 1 0 841.89)" font-size="8.583" font-family="Arial, Helvetica, sans-serif"><tspan y="-341.3242" x="254.1602 259.88508 264.65724 267.51539 271.8069">Burke</tspan><tspan y="-331.19627" x="250.00603 256.20295 260.9751 265.2666 270.03877 271.94419 274.33027 279.10243">Hospital</tspan></text>
<text xml:space="preserve" transform="matrix(.92924717 -.36945883 .36945883 .92924717 0 841.89)" font-size="6.999968" font-family="Arial, Helvetica, sans-serif"><tspan y="-241.19902" x="360.45588">B</tspan><tspan y="-241.19904" x="365.12489 367.45585">ry</tspan><tspan y="-241.19902" x="370.95585">a</tspan><tspan y="-241.199" x="374.8478">n</tspan><tspan y="-241.19904" x="378.7398">t</tspan><tspan y="-231.98705" x="357.0399">G</tspan><tspan y="-231.98703" x="362.48585">a</tspan><tspan y="-231.98705" x="366.37785 368.70884 372.6008">rde</tspan><tspan y="-231.98706" x="376.49278 380.38478">ns</tspan></text>
<text xml:space="preserve" transform="matrix(1 0 -0 1 0 841.89)" font-size="7.7248" font-family="Arial, Helvetica, sans-serif"><tspan y="-430.7051" x="327.9766 333.98649 335.7014">Old</tspan><tspan y="-421.4894" x="315.75596 321.76585 326.06083 329.92323 332.0707 337.648 339.3629 343.6579 347.95289">Oak Ridge</tspan></text>
<text xml:space="preserve" transform="matrix(1 0 -0 1 0 841.89)" font-size="9.539" font-family="Arial, Helvetica, sans-serif"><tspan y="-421.0234" x="239.1597 246.04686 251.35054 258.2377 260.71788 266.2047 271.5084 274.68489">New York</tspan><tspan y="-409.7674" x="233.42676 239.78928 242.96576 248.26944 253.03894 258.34263 263.11213 265.76399 271.06767 274.24415 276.3618 281.66548">Presbyterian</tspan><tspan y="-398.51139" x="242.86083 249.74799 255.05167 259.82118 265.12486 267.2425 269.89436 275.19804">Hospital</tspan></text>
<text xml:space="preserve" transform="matrix(1 0 -0 1 0 841.89)" font-size="6" font-family="Arial, Helvetica, sans-serif"><tspan y="-380.8467" x="213.6753 218.34329 219.6753">Old</tspan><tspan y="-371.7267" x="197.1693 202.1673 205.5033 210.5013 213.8373 215.8353 219.1713 222.5073 225.84329 228.84329">Mamaroneck</tspan><tspan y="-362.60673" x="210.3693 214.7013 218.0373 221.37329">Road</tspan></text>
<text xml:space="preserve" transform="matrix(1 0 -0 1 0 841.89)" font-size="7.7288" font-family="Arial, Helvetica, sans-serif"><tspan y="-332.4561" x="209.0703 215.0833 219.38051 223.67772 227.97493 232.27214">Gedney</tspan><tspan y="-323.3361" x="214.48819 219.6433 223.9405 226.51419">Park</tspan></text>
<text xml:space="preserve" transform="matrix(1 0 -0 1 0 841.89)" font-size="7.3017" font-family="Arial, Helvetica, sans-serif"><tspan y="-274.0547" x="184.9873 187.01718 191.07694 192.6979">Idle</tspan><tspan y="-265.4387" x="180.49677 184.9581 189.01786 191.44933 195.50907 199.15991">Forest</tspan></text>
<text xml:space="preserve" transform="matrix(1 0 -0 1 0 841.89)" font-size="9.539" font-family="Arial, Helvetica, sans-serif"><tspan y="-350.29" x="147.4727 154.35987 156.47753 161.7812 167.08489 169.20255 174.50623 179.8099 185.11359">Highlands</tspan></text>
<text xml:space="preserve" transform="matrix(1 0 -0 1 0 841.89)" font-size="8.583" font-family="Arial, Helvetica, sans-serif"><tspan y="-325.6895" x="100.8267 106.55156 109.4097 114.18185 118.47334 123.24549 128.01764 132.30915">Prospect</tspan><tspan y="-315.56159" x="108.83464 114.5595 119.33165 122.18979">Park</tspan></text>
<text xml:space="preserve" transform="matrix(1 0 -0 1 0 841.89)" font-size="9.539" font-family="Arial, Helvetica, sans-serif"><tspan y="-454.1562" x="45.4995 51.862016 57.1657 59.817544 62.469385 64.58704 69.89073 72.54257 79.42973 81.54739 83.665058">Battle Hill</tspan></text>
<text xml:space="preserve" transform="matrix(1 0 -0 1 0 841.89)" font-size="9.539" font-family="Arial, Helvetica, sans-serif"><tspan y="-401.9678" x="74.6133 80.44163 82.55929 87.32879 92.63248 97.93616 101.11264 103.76448 110.65164 112.7693 114.88696">Fisher Hill</tspan></text>
<text xml:space="preserve" transform="matrix(1 0 -0 1 0 841.89)" font-size="8" font-family="Arial, Helvetica, sans-serif"><tspan y="-510.4834" x="49.3403 54.228303 58.676305 60.452306 62.676305 67.124309">Fulton</tspan><tspan y="-500.2514" x="49.7083 55.044305 57.268304 59.932306 64.3803 68.8283">Street</tspan></text>
<text xml:space="preserve" transform="matrix(1 0 -0 1 0 841.89)" font-size="8" font-family="Arial, Helvetica, sans-serif"><tspan y="-556.2646" x="113.9526 118.8406 123.2886 125.9526 128.6166 130.3926">Ferris</tspan><tspan y="-546.1366" x="117.8486 123.0406 127.0406">Ave</tspan></text>
<g clip-path="url(#clip_20)">
<path transform="matrix(1,0,0,-1,114.0544,459.77104)" stroke-width=".709" stroke-linecap="round" stroke-linejoin="round" fill="none" stroke="#000000" d="M0 0 4.796 13.681 45.002 47.222 45.838 44.228 49.461 39.447C46.177 30.285 38.15 23.648 28.534 22.144L13.772 11.579 0 0Z"/>
</g>
<text xml:space="preserve" transform="matrix(.7785267 -.6276114 .6276114 .7785267 0 841.89)" font-size="6.0000507" font-family="Arial, Helvetica, sans-serif"><tspan y="-227.7329" x="351.97953">H</tspan><tspan y="-227.73291" x="356.31156">e</tspan><tspan y="-227.7329" x="359.64759">a</tspan><tspan y="-227.73291" x="362.9836">l</tspan><tspan y="-227.7329" x="364.3156">t</tspan><tspan y="-227.73291" x="365.98365">h</tspan><tspan y="-227.7329" x="369.31968"> </tspan><tspan y="-227.73291" x="370.9877">C</tspan><tspan y="-227.73293" x="375.31974">e</tspan><tspan y="-227.73291" x="378.65577">n</tspan><tspan y="-227.73293" x="381.99177">t</tspan><tspan y="-227.73291" x="383.6598">e</tspan><tspan y="-227.73293" x="386.9958">r</tspan></text>
<text xml:space="preserve" transform="matrix(.827541 -.56140527 .56140527 .827541 0 841.89)" font-size="5.999944" font-family="Arial, Helvetica, sans-serif"><tspan y="-272.4603" x="356.51387">W</tspan><tspan y="-272.46028" x="362.17784 363.5098 366.84577 370.18174 372.17973 375.5157 378.85166">inbrook</tspan></text>
<text xml:space="preserve" transform="matrix(1 0 -0 1 0 841.89)" font-size="8.583" font-family="Arial, Helvetica, sans-serif"><tspan y="-502.375" x="200.5874 206.31227 211.08443 215.37593 217.76201 222.05352 223.95894 228.7311">Eastview</tspan></text>
<text xml:space="preserve" transform="matrix(1 0 -0 1 0 841.89)" font-size="8.583" font-family="Arial, Helvetica, sans-serif"><tspan y="-528.8857" x="129.2979 135.49483 140.26699 145.03914 147.89728 152.18878">Church</tspan><tspan y="-518.6547" x="131.4179 137.14276 139.52884 142.38698 147.15914 151.93129">Street</tspan></text>
<text xml:space="preserve" transform="matrix(1 0 -0 1 0 841.89)" font-size="8" font-family="Arial, Helvetica, sans-serif"><tspan y="-556.9805" x="167.2808 173.5048 177.9528 182.4008">Good</tspan><tspan y="-546.74856" x="163.5128 169.2888 173.7368 178.1848 182.6328 186.6328 191.0808">Counsel</tspan></text>
<text xml:space="preserve" transform="matrix(1 0 -0 1 0 841.89)" font-size="8.5851" font-family="Arial, Helvetica, sans-serif"><tspan y="-621" x="139.1997 145.39815 150.17147 153.0303 155.41696">North</tspan><tspan y="-610.86959" x="130.46009 136.18634 139.04518 143.8185 148.59181 153.36513 159.56357 164.33689">Broadway</tspan></text>
<text xml:space="preserve" transform="matrix(1 0 -0 1 0 841.89)" font-size="7.7248" font-family="Arial, Helvetica, sans-serif"><tspan y="-602.415" x="182.6987 189.85031 194.1453 198.00769 200.15518 206.58994 208.30484 212.59983 216.46222 218.60971 222.9047">Westminster</tspan><tspan y="-593.29977" x="193.89966 199.47696 201.19187 205.48685 209.78183">Ridge</tspan></text>
<text xml:space="preserve" transform="matrix(1 0 -0 1 0 841.89)" font-size="8.583" font-family="Arial, Helvetica, sans-serif"><tspan y="-591.4141" x="233.7139 241.66005 246.4322 251.20436 255.97652 260.268 263.12617 267.89833 272.18983">Woodcrest</tspan><tspan y="-581.2862" x="239.45594 245.65287 250.42502 252.33045 257.1026 261.87477 264.26084">Heights</tspan></text>
<text xml:space="preserve" transform="matrix(1 0 -0 1 0 841.89)" font-size="8.583" font-family="Arial, Helvetica, sans-serif"><tspan y="-730.5977" x="203.0796 211.18196 215.95412 217.85955 220.24562 225.01778 227.40386 233.12873 235.03415 239.8063 241.71173 246.48389">White Plains</tspan><tspan y="-720.4698" x="208.00624 214.20317 218.97533 223.26683 228.03899 230.89713 235.18863 237.09406 241.86621">Reservoir</tspan></text>
<g clip-path="url(#clip_21)">
<path transform="matrix(1,0,0,-1,209.7072,198.7511)" stroke-width=".709" stroke-linecap="round" stroke-linejoin="round" fill="none" stroke="#000000" d="M0 0-2.322 .98-2.683 3.715-2.373 5.831-3.096 6.966-4.231 7.327-6.089 8.049-8.617 9.184-10.113 10.629-11.403 12.435-11.971 14.344-11.403 16.46-10.32 18.936-9.184 21-8.049 22.858-6.656 25.954-5.882 27.347-4.592 28.791-2.993 31.578-1.339 33.01 .08 33.849 1.822 34.849 3.37 36.816 3.982 38.525 3.66 40.782 4.853 42.266 5.885 42.846 6.723 44.233 7.755 46.361 7.53 47.845 7.336 48.361 6.586 49.337 6.973 50.949 6.844 52.465V53.755L6.006 54.303 4.877 53.819 3.039 53.271 1.459 53.206-.251 53.884-.928 55.432-.831 57.205-.928 59.527-.509 60.559-.499 61.688-.448 63.803-1.17 64.835-2.151 65.506-2.976 64.577-3.544 63.236-4.472 62.204-5.35 62.152-6.278 63.442-7.568 65.145-8.394 66.744V69.686L-9.168 72.523-8.858 75.98-7.826 76.703-6.433 77.322-4.937 77.167-4.111 76.6-2.151 74.536-1.531 72.988-.603 71.853-.499 69.428-.396 68.396 .068 67.054 1.874 66.641 3.216 67.364 4.867 66.538 6.673 65.919 7.085 64.165 7.292 62.875 9.098 62.978 11.523 62.565 11.781 61.378V59.934L11.936 58.334 12.245 56.425 12.916 55.806 13.999 54.619 15.496 54.155 17.508 53.484 18.024 51.884 17.869 49.975 16.683 48.84 15.186 47.653 13.793 47.137 10.646 46.931 9.304 47.447 8.324 47.241 7.963 46.002 7.343 44.299 6.879 43.422 8.53 43.061 9.098 42.287 9.665 40.997 10.13 39.811 10.749 38.933 11.353 38.25 11.74 37.283 11.578 36.347 11.417 35.186 10.998 34.412 10.417 33.638 10.127 32.606 9.385 31.929 8.708 30.768 7.966 29.898 7.741 28.188 8.304 26.179 8.969 25.957 9.811 26.756 10.61 27.687 11.718 28.795 12.782 29.815 13.891 29.948V29.327L13.669 28.396 13.226 27.465 12.649 26.268 12.25 25.026 11.186 24.406 10.166 22.543 9.457 21.124 8.747 19.838 8.171 18.774 7.727 17.533 7.905 16.468 7.772 14.03 8.126 13.187 8.194 12.619 8.549 11.023 9.081 9.959 9.613 8.628 9.701 7.076V5.657L9.568 4.549 9.191 2.938 7.994 1.43 6.264 .854 5.511 .322 3.56-.21 2.185-.521 0 0Z"/>
<path transform="matrix(1,0,0,-1,265.1028,278.9702)" stroke-width=".709" stroke-linecap="round" stroke-linejoin="round" fill="none" stroke="#000000" d="M0 0-.938 1.192-1.144 1.56-1.068 2.253-.905 2.816-.624 3.119 .145 3.682 .957 4.19 1.433 4.212 2.299 4.32 2.992 4.45 3.447 4.613 4.821 4.862 5.568 5.057 6.142 5.425 6.543 5.868 6.748 6.193 7.116 6.691 7.517 6.951 7.227 6.672 8.145 7.157 8.838 7.417 9.479 7.832 9.756 8.421 9.6 9.495 9.79 10.309 9.531 10.933 10.102 11.73 10.189 12.803 10.628 13.75 10.794 15.385 11.127 16.549 11.736 17.325 12.374 18.378 12.79 19.265 13.122 19.625 13.621 20.761 15.131 22.972 16.55 25.313 17.401 27.867 18.678 29.428 19.388 29.499 20.878 30.066 22.155 30.847 23.219 32.62 23.006 35.033 24.212 36.381 24.709 38.58 24.78 40.07 26.199 42.198 26.695 44.043 27.405 45.32 28.966 46.455 30.172 48.087 31.945 50.002 33.222 51.918 34.996 53.904 35.847 56.6 37.337 58.445 38.402 59.793 39.679 61.425 40.53 62.205H41.259L42.021 61.893 42.402 61.443 42.645 61.166 43.528 60.768 44.03 59.468 43.892 58.637 44.152 57.719 44.238 56.264 44.338 55.85"/>
<path transform="matrix(1,0,0,-1,316.9184,203.58203)" stroke-width=".709" stroke-linecap="round" stroke-linejoin="round" fill="none" stroke="#000000" d="M0 0-2.258-.785-3.251-.431-3.961-1.211-5.309-2.346-6.16-3.552-8.218-5.539-7.65-8.022-8.856-10.15-9.282-12.137-8.856-12.704-8.572-13.911-6.515-13.982-4.954-13.84-3.748-13.343"/>
<path transform="matrix(1,0,0,-1,0,841.89)" stroke-width=".709" stroke-linecap="round" stroke-linejoin="round" fill="none" stroke="#000000" d="M392.083 46.364H510.318V55.079H392.083Z"/>
<path transform="matrix(1,0,0,-1,0,841.89)" stroke-width=".709" stroke-linecap="round" stroke-linejoin="round" fill="none" stroke="#000000" d="M392.083 46.364H451.20103V55.079H392.083Z"/>
</g>
<text xml:space="preserve" transform="matrix(1 0 -0 1 0 841.89)" font-size="9.539" font-family="Arial, Helvetica, sans-serif"><tspan y="-59.999" x="498.1465 503.4502 506.10206 511.40574 516.7094">5,000</tspan></text>
<text xml:space="preserve" transform="matrix(1 0 -0 1 0 841.89)" font-size="9.539" font-family="Arial, Helvetica, sans-serif"><tspan y="-59.999" x="438.312 443.6157 446.26756 451.57124 456.8749">2,500</tspan></text>
<text xml:space="preserve" transform="matrix(1 0 -0 1 0 841.89)" font-size="9.539" font-family="Arial, Helvetica, sans-serif"><tspan y="-59.999" x="388.2461">0</tspan></text>
<g clip-path="url(#clip_22)">
<path transform="matrix(1,0,0,-1,0,841.89)" d="M392.083 46.364H451.20103V55.079H392.083Z" fill-rule="evenodd"/>
</g>
<text xml:space="preserve" transform="matrix(-1 -0 0 -1 0 841.89)" font-size="14.0742" font-family="Arial, Helvetica, sans-serif"><tspan y="104.4961" x="-515.415">N</tspan></text>
<g clip-path="url(#clip_23)">
<path transform="matrix(1,0,0,-1,526.5325,748.2108)" stroke-width=".709" stroke-linecap="round" stroke-linejoin="round" fill="none" stroke="#000000" d="M0 0H-32.477"/>
<path transform="matrix(1,0,0,-1,526.5325,748.2108)" stroke-width=".709" stroke-linecap="round" stroke-linejoin="round" fill="none" stroke="#000000" d="M0 0C0 8.968-7.27 16.238-16.238 16.238-25.207 16.238-32.477 8.968-32.477 0-32.477-8.968-25.207-16.238-16.238-16.238-7.27-16.238 0-8.968 0 0Z"/>
<path transform="matrix(1,0,0,-1,526.5325,748.2108)" stroke-width=".709" stroke-linecap="round" stroke-linejoin="round" fill="none" stroke="#000000" d="M0 0H-32.477L-16.238 16.238 0 0"/>
</g>
<text xml:space="preserve" transform="matrix(1 0 -0 1 0 841.89)" font-size="19.078" font-family="Arial, Helvetica, sans-serif"><tspan y="-689.0088" x="374.1533 387.9276 398.53498 402.7703 413.37767 423.98503 434.59239 445.19975 451.5527 462.16007 472.76744 483.3748 493.98216">Neighborhoods</tspan><tspan y="-666.2678" x="429.9946 440.60197">of</tspan><tspan y="-643.52688" x="337.9814 349.63807 360.24543 370.85279 376.15647 389.9308 394.1661 399.4698 409.0088 414.31248 424.91984 430.2235 435.5272 453.53684 464.1442 468.37953 473.6832 484.29057 489.59425 502.31929 506.5546 517.162 521.3973 532.00466">The City of White Plains</tspan></text>
<text xml:space="preserve" transform="matrix(1 0 -0 1 0 841.89)" font-size="10.4929" font-family="Arial, Helvetica, sans-serif"><tspan y="-623.0889" x="388.6538 390.98326 396.8173 399.7343 409.44865 415.28269 420.52915 423.44618 428.69264 434.52668 440.36073 445.60719 448.5242 454.35826 457.8524 460.7694 468.34529 474.17933 480.01338 485.8474 488.76445">in Westchester County</tspan><tspan y="-610.5814" x="399.12574 406.1245 409.04154 414.87559 417.7926 423.62666 426.54368 432.37773 435.29475 438.21177 445.78764 451.62168 459.19755 461.92256 467.95915 473.79319 477.28733">State of New York</tspan></text>
<text xml:space="preserve" transform="matrix(1 0 -0 1 0 841.89)" font-size="8.583" font-family="Arial, Helvetica, sans-serif"><tspan y="-416.4131" x="376.8193 384.76545 389.5376 393.8291 396.21519 400.50669 405.27885 410.051 414.3425 416.72859 421.50074">Westchester</tspan><tspan y="-406.28517" x="393.37593 398.9463 403.2369">Ave</tspan></text>
<path transform="matrix(1,0,0,-1,310.6317,421.0396)" stroke-width="2" stroke-linecap="round" stroke-linejoin="round" fill="none" stroke="#000000" d="M0 0 11.821 32.187 42.369 20.651 47.283-27.131 25.279-31.546 11.648-12.682 0 0Z"/>
<text xml:space="preserve" transform="matrix(1 0 -0 1 0 841.89)" font-size="8.583" font-family="Arial, Helvetica, sans-serif"><tspan y="-419.8701" x="194.5103 200.70723 205.47939 208.33753 213.10968 217.88184 220.73998">Carhart</tspan></text>
<text xml:space="preserve" transform="matrix(.9757996 -.21866659 .21866659 .9757996 0 841.89)" font-size="6.0000026" font-family="Arial, Helvetica, sans-serif"><tspan y="-409.7902" x="232.00789">G</tspan><tspan y="-409.79017" x="236.67589 240.01189">ov</tspan><tspan y="-409.7902" x="243.01189">e</tspan><tspan y="-409.79017" x="246.34789 248.34589">rn</tspan><tspan y="-409.79014" x="251.68189">m</tspan><tspan y="-409.79017" x="256.67988">e</tspan><tspan y="-409.79014" x="260.01588 263.35188">nt</tspan><tspan y="-402.59019" x="232.00789 236.3399 239.6759 243.01189 244.6799">Cente</tspan><tspan y="-402.59016" x="248.0159">r</tspan></text>
</g>
<g inkscape:groupmode="layer" inkscape:label="Text">
<text xml:space="preserve" transform="matrix(1.0021809 0 -0 .9978238 0 841.89)" font-size="9.019629" font-family="Arial, Helvetica, sans-serif"><tspan y="-473.79719" x="133.40537 139.91754 142.92108 147.93599 152.9509 157.9658 160.47327 166.98545 172.00035 175.00389">Urban Core</tspan></text>
</g>
</svg>
